<svg id="Layer_1" data-name="Layer 1" xmlns="http://www.w3.org/2000/svg" viewBox="0 0 337.93 371.08"><defs><style>.cls-1{fill:#060506;}.cls-2{fill:#fff;}.cls-3{fill:#010001;}.cls-4,.cls-5{fill:none;stroke-miterlimit:10;}.cls-4{stroke:#fff;stroke-width:1.54px;}.cls-5{stroke:#060506;stroke-width:1.91px;}</style></defs><title>logo-black-and-white</title><path class="cls-1" d="M257.08,70.47q75.09,0,150.2,0C421,70.48,425,74.43,425,88q0,119.6,0,239.18c0,17.56-1.91,20.56-18.36,26.67-34.83,12.94-69.74,25.67-104.58,38.57q-59.65,22.08-119.23,44.34c-46.14,17.33-95-14.66-95.32-63.55-.61-95.34-.39-190.69-.43-286,0-11.75,5.1-16.69,17-16.7Q180.55,70.41,257.08,70.47Z" transform="translate(-87.03 -70.46)"/><path class="cls-2" d="M102.64,219.59c-.06-39.23.12-78.46-.4-117.68-.1-7.78,2.72-8.6,9.31-8.59q144.48.29,289,0c6.33,0,8.93,1.06,8.7,8.16-.64,19.74-.46,39.51-.61,59.27-3.39,3.18-7.66,2.7-11.75,2.7q-105.94.06-211.88.11c-3.37,0-6.73-1.39-10-.18,35.69,9.64,51.78,54.75,28.83,85.58-20.26,27.21-53.75,32-81.1,11.91a45.7,45.7,0,0,1-18.4-28.1C102.91,228.48,103.89,223.89,102.64,219.59Z" transform="translate(-87.03 -70.46)"/><path class="cls-2" d="M404.86,193.19c4.5-.55,4.17,2.54,4.17,5.46,0,37.3-.14,74.6.1,111.89.05,7.93-5.29,5.57-9.12,5.58q-106.15.15-212.3.07h-15.9c3.26,1.72,4.79,2.63,6.4,3.37,27,12.36,39.95,38.55,32.42,65.53a55.28,55.28,0,0,1-60.75,39.69c-27.18-3.63-47.14-27-47.38-56.12-.23-29.64,0-59.29,0-88.93a3.09,3.09,0,0,1,2.6-1.21c10.82,4.44,20.81,10.59,32.84,12.5a73.84,73.84,0,0,0,41.15-4.76c65.57-27.38,131-55.16,196.44-82.81C385,199.42,394,193.65,404.86,193.19Z" transform="translate(-87.03 -70.46)"/><path class="cls-3" d="M404.86,193.19c-33.81,14.52-67.59,29.14-101.45,43.54-40.61,17.26-81.21,34.55-122,51.43-27.16,11.24-53.07,8.48-77.14-8.85-2.08-15.32-.71-30.7-.7-46.05,0-1.39,1.25-1.08,2-1.41,9.57,25.32,30.26,40.21,53.89,38.8,24.94-1.49,44.66-17.6,50.87-41.56,7.28-28.09-10.27-57.31-38.82-64.64-.1-3.89,2.93-2.62,4.76-2.62q114.81-.06,229.62,0a7.14,7.14,0,0,1,2.69.86c0,7.2-.19,14.41.13,21.6A9.94,9.94,0,0,1,404.86,193.19Z" transform="translate(-87.03 -70.46)"/><path class="cls-3" d="M105.62,231.85c-3.14,15.74-.58,31.65-1.33,47.46a5.8,5.8,0,0,0-1.83.42l.18-60.14Q104.13,225.73,105.62,231.85Z" transform="translate(-87.03 -70.46)"/><line class="cls-4" x1="321.02" y1="91.29" x2="73.35" y2="91.29"/><path class="cls-1" d="M157.37,327.68a42.57,42.57,0,0,0-42.57,42.57h85.13A42.57,42.57,0,0,0,157.37,327.68Z" transform="translate(-87.03 -70.46)"/><path class="cls-1" d="M157.37,174A42.57,42.57,0,0,0,114.8,216.6h85.13A42.57,42.57,0,0,0,157.37,174Z" transform="translate(-87.03 -70.46)"/><path class="cls-5" d="M104.64,223.78" transform="translate(-87.03 -70.46)"/></svg>