<svg id="Layer_1" data-name="Layer 1" xmlns="http://www.w3.org/2000/svg" viewBox="0 0 404 356.5"><defs><style>.cls-1{font-size:60.13px;font-family:Aller-Bold, Aller;font-weight:700;}.cls-2{font-size:31.36px;fill:#0d1137;font-family:SEAGARDENS, SEA GARDENS;}.cls-3{fill:#060506;}.cls-4{fill:#00e6fe;}.cls-5{fill:#c7fe00;}.cls-6{fill:#010001;}.cls-7{fill:#03b0c2;}.cls-8,.cls-9{fill:none;stroke-miterlimit:10;}.cls-8{stroke:#00e6fe;stroke-width:3.72px;}.cls-9{stroke:#060506;stroke-width:1.24px;}</style></defs><title>logo</title><text class="cls-1" transform="translate(0 314.83)">CLADEX PAPER</text><text class="cls-2" transform="translate(3.47 352.77)">PREMIUM QUALITY PAPERS</text><path class="cls-3" d="M259.73,81.64q48.66,0,97.31,0c8.86,0,11.44,2.56,11.45,11.36q0,77.48,0,154.94c0,11.38-1.24,13.33-11.9,17.28-22.56,8.39-45.17,16.63-67.75,25q-38.64,14.29-77.23,28.72c-29.89,11.23-61.55-9.5-61.76-41.16-.39-61.77-.24-123.54-.27-185.31,0-7.61,3.3-10.81,11-10.82Q210.15,81.61,259.73,81.64Z" transform="translate(-54 -81.63)"/><path class="cls-4" d="M159.68,178.24c0-25.41.08-50.82-.25-76.23-.07-5,1.76-5.58,6-5.57q93.58.18,187.19,0c4.1,0,5.78.69,5.63,5.29-.41,12.79-.3,25.59-.39,38.4-2.2,2.06-5,1.74-7.62,1.74q-68.62,0-137.26.07c-2.18,0-4.36-.9-6.49-.11,23.12,6.24,33.54,35.47,18.67,55.44C212.07,214.89,190.37,218,172.66,205a29.62,29.62,0,0,1-11.92-18.21C159.86,184,160.49,181,159.68,178.24Z" transform="translate(-54 -81.63)"/><path class="cls-5" d="M355.47,161.14c2.91-.36,2.7,1.64,2.7,3.54,0,24.16-.09,48.32.06,72.48,0,5.14-3.42,3.61-5.91,3.61q-68.76.1-137.53,0h-10.3c2.12,1.12,3.11,1.71,4.15,2.18,17.48,8,25.88,25,21,42.45a35.81,35.81,0,0,1-39.35,25.72c-17.61-2.35-30.54-17.51-30.69-36.36-.16-19.2,0-38.4,0-57.61a2,2,0,0,1,1.68-.78c7,2.87,13.48,6.86,21.27,8.1a47.92,47.92,0,0,0,26.67-3.08c42.47-17.75,84.85-35.74,127.25-53.65C342.61,165.18,348.46,161.44,355.47,161.14Z" transform="translate(-54 -81.63)"/><path class="cls-6" d="M355.47,161.14c-21.91,9.41-43.78,18.88-65.72,28.2-26.31,11.19-52.61,22.39-79,33.32-17.6,7.29-34.39,5.5-50-5.73-1.35-9.93-.46-19.89-.45-29.83,0-.9.81-.7,1.31-.92,6.21,16.4,19.61,26,34.92,25.14,16.16-1,28.93-11.4,32.95-26.93,4.72-18.19-6.65-37.12-25.15-41.87-.06-2.52,1.9-1.69,3.09-1.7q74.37,0,148.75,0a4.56,4.56,0,0,1,1.74.56c0,4.67-.12,9.34.09,14A6.46,6.46,0,0,1,355.47,161.14Z" transform="translate(-54 -81.63)"/><path class="cls-7" d="M357.91,141.37q-73.31,0-146.6.07c-2.32,0-5-1.14-7,1.08-2,.49-3.59-.28-6.56-2.39H357.89Z" transform="translate(-54 -81.63)"/><path class="cls-6" d="M161.61,186.18c-2,10.2-.37,20.51-.86,30.75a4,4,0,0,0-1.18.27q.06-19.47.11-39Q160.66,182.21,161.61,186.18Z" transform="translate(-54 -81.63)"/><line class="cls-8" x1="303.54" y1="59.14" x2="143.1" y2="59.14"/><path class="cls-3" d="M195.14,248.27a27.57,27.57,0,0,0-27.58,27.57h55.15A27.57,27.57,0,0,0,195.14,248.27Z" transform="translate(-54 -81.63)"/><path class="cls-3" d="M195.14,148.73a27.57,27.57,0,0,0-27.58,27.57h55.15A27.57,27.57,0,0,0,195.14,148.73Z" transform="translate(-54 -81.63)"/><path class="cls-9" d="M161,181" transform="translate(-54 -81.63)"/></svg>