<?xml version="1.0" encoding="utf-8"?>
<!-- Generator: Adobe Illustrator 23.0.5, SVG Export Plug-In . SVG Version: 6.00 Build 0)  -->
<svg version="1.1" id="Layer_1" xmlns="http://www.w3.org/2000/svg" xmlns:xlink="http://www.w3.org/1999/xlink" x="0px" y="0px"
	 viewBox="0 0 512 512" style="enable-background:new 0 0 512 512;" xml:space="preserve">
<style type="text/css">
	.st0{fill:#0D1137;}
	.st1{fill:#060506;}
	.st2{fill:#00E6FE;}
	.st3{fill:#C7FE00;}
	.st4{fill:#010001;}
	.st5{fill:#03B0C2;}
	.st6{fill:none;stroke:#00E6FE;stroke-width:3.7212;stroke-miterlimit:10;}
	.st7{fill:none;stroke:#060506;stroke-width:1.2404;stroke-miterlimit:10;}
	.st8{fill:none;stroke:#FFFFFF;stroke-width:3;stroke-miterlimit:10;}
	.st9{fill:#FFFFFF;}
</style>
<g>
	<g>
		<g>
			<path d="M-454.8,388.3c0.5,1.1,1,2.3,1.3,3.5c0.3,1.2,0.6,2.4,0.8,3.6c-2.1,0.8-4,1.3-5.6,1.5c-1.7,0.2-3.5,0.4-5.4,0.4
				c-3.4,0-6.4-0.6-9-1.7c-2.6-1.1-4.7-2.6-6.5-4.6c-1.7-2-3.1-4.3-3.9-7.1c-0.9-2.7-1.3-5.7-1.3-8.9s0.5-6.2,1.4-8.9
				c0.9-2.7,2.3-5.1,4-7.1c1.7-2,3.9-3.6,6.4-4.7c2.5-1.1,5.4-1.7,8.7-1.7c1.9,0,3.7,0.1,5.3,0.4s3.4,0.7,5.3,1.5
				c-0.1,1.2-0.3,2.4-0.7,3.5c-0.4,1.1-0.8,2.3-1.3,3.5c-1.4-0.5-2.6-0.8-3.7-1c-1.1-0.2-2.4-0.3-3.8-0.3c-3.8,0-6.8,1.3-8.9,3.8
				c-2.1,2.5-3.1,6.2-3.1,11.2c0,9.8,4.1,14.7,12.4,14.7c1.5,0,2.8-0.1,3.9-0.3C-457.5,389.1-456.2,388.8-454.8,388.3z"/>
			<path d="M-446.2,353.2c1.5-0.2,2.9-0.4,4.3-0.4c1.4,0,2.9,0.1,4.4,0.4v35.7h15c0.1,0.7,0.2,1.3,0.2,2c0,0.6,0.1,1.2,0.1,1.8
				c0,0.6,0,1.3-0.1,1.9c0,0.6-0.1,1.3-0.2,2h-23.6V353.2z"/>
			<path d="M-406.6,353.2c0.8-0.1,1.6-0.2,2.4-0.3c0.8-0.1,1.6-0.1,2.5-0.1c0.8,0,1.6,0,2.3,0.1c0.8,0.1,1.6,0.2,2.5,0.3l13.5,43.2
				c-1.6,0.2-3.2,0.4-4.8,0.4c-1.5,0-3-0.1-4.4-0.4l-2.4-8.7h-14.3l-2.5,8.7c-1.4,0.2-2.8,0.4-4.1,0.4c-1.5,0-2.9-0.1-4.4-0.4
				L-406.6,353.2z M-396.9,380.5l-5-18.2l-5.2,18.2H-396.9z"/>
			<path d="M-378.2,353.2c1.7-0.2,3.4-0.4,5.3-0.5c1.8-0.1,3.9-0.2,6.1-0.2c7.6,0,13.3,1.9,17.3,5.7c3.9,3.8,5.9,9.4,5.9,17
				c0,7.6-2,13.1-6,16.7c-4,3.6-10,5.4-17.9,5.4c-2,0-3.9-0.1-5.7-0.2c-1.7-0.1-3.4-0.3-5.1-0.5V353.2z M-369.3,389.5
				c0.4,0,0.8,0.1,1.4,0.1c0.6,0,1.2,0.1,2,0.1c1.8,0,3.6-0.2,5.1-0.6c1.6-0.4,3-1.2,4.1-2.3c1.2-1.1,2.1-2.6,2.8-4.5
				c0.7-1.9,1-4.3,1-7.3c0-2.9-0.3-5.3-1-7.2c-0.7-1.9-1.6-3.4-2.8-4.6c-1.2-1.1-2.5-1.9-4-2.4c-1.5-0.5-3.1-0.7-4.8-0.7
				c-0.6,0-1.2,0-2,0c-0.7,0-1.4,0.1-2,0.2V389.5z"/>
			<path d="M-336.3,353.2h24.5c0.2,1.2,0.4,2.4,0.4,3.7c0,1.3-0.1,2.6-0.4,3.8h-15.8v9.4h12.5c0.2,1.3,0.4,2.5,0.4,3.7
				c0,1.3-0.1,2.5-0.4,3.8h-12.5V389h16.2c0.2,1.2,0.4,2.4,0.4,3.7c0,1.3-0.1,2.6-0.4,3.8h-25V353.2z"/>
			<path d="M-298,373.9l-7.8-20.6c0.8-0.1,1.6-0.2,2.4-0.2c0.8,0,1.6-0.1,2.3-0.1c1.4,0,2.9,0.1,4.5,0.4l6.9,20.7l-8.6,22.4
				c-1,0.2-1.9,0.3-2.6,0.3c-0.7,0.1-1.4,0.1-2.1,0.1c-0.7,0-1.4,0-2.1-0.1c-0.7-0.1-1.5-0.2-2.4-0.3L-298,373.9z M-289.3,374
				l6.7-20.7c1.6-0.2,3.1-0.4,4.5-0.4c0.8,0,1.5,0,2.3,0.1s1.6,0.1,2.4,0.2l-7.6,20.6l9.4,22.6c-0.9,0.1-1.7,0.2-2.4,0.3
				s-1.4,0.1-2.1,0.1c-0.7,0-1.4,0-2.1-0.1s-1.6-0.2-2.6-0.3L-289.3,374z"/>
			<path d="M-253.1,353.1c1.8-0.2,3.7-0.3,5.6-0.4c1.9-0.1,3.8-0.2,5.7-0.2c2,0,4,0.2,6.1,0.6c2.1,0.4,3.9,1.2,5.6,2.3
				c1.7,1.1,3,2.6,4.1,4.6c1,2,1.6,4.5,1.6,7.6c0,3.1-0.5,5.7-1.6,7.6s-2.4,3.5-4,4.6s-3.5,1.9-5.5,2.3c-2,0.4-4,0.6-6,0.6
				c-0.5,0-1,0-1.5,0c-0.5,0-0.9,0-1.3-0.1v13.9c-0.8,0.1-1.5,0.2-2.2,0.2s-1.4,0.1-2.1,0.1c-0.6,0-1.3,0-2.1-0.1
				c-0.8,0-1.5-0.1-2.3-0.2V353.1z M-244.3,375.3c0.5,0.1,0.9,0.1,1.4,0.1s0.9,0,1.5,0c1,0,2-0.1,2.9-0.4c1-0.3,1.8-0.7,2.6-1.3
				c0.7-0.6,1.3-1.4,1.8-2.4c0.4-1,0.7-2.2,0.7-3.6c0-1.5-0.2-2.7-0.7-3.8c-0.4-1-1-1.8-1.8-2.5c-0.7-0.6-1.6-1.1-2.6-1.3
				s-1.9-0.4-2.9-0.4c-0.4,0-0.9,0-1.2,0c-0.4,0-0.9,0.1-1.7,0.2V375.3z"/>
			<path d="M-208,353.2c0.8-0.1,1.6-0.2,2.4-0.3c0.8-0.1,1.6-0.1,2.5-0.1c0.8,0,1.6,0,2.3,0.1c0.8,0.1,1.6,0.2,2.5,0.3l13.5,43.2
				c-1.6,0.2-3.2,0.4-4.8,0.4c-1.5,0-3-0.1-4.4-0.4l-2.4-8.7h-14.3l-2.5,8.7c-1.4,0.2-2.8,0.4-4.1,0.4c-1.5,0-2.9-0.1-4.4-0.4
				L-208,353.2z M-198.3,380.5l-5-18.2l-5.2,18.2H-198.3z"/>
			<path d="M-179.8,353.1c1.8-0.2,3.7-0.3,5.6-0.4c1.9-0.1,3.8-0.2,5.7-0.2c2,0,4,0.2,6.1,0.6c2.1,0.4,3.9,1.2,5.6,2.3
				c1.7,1.1,3,2.6,4.1,4.6c1,2,1.6,4.5,1.6,7.6c0,3.1-0.5,5.7-1.6,7.6s-2.4,3.5-4,4.6s-3.5,1.9-5.5,2.3c-2,0.4-4,0.6-6,0.6
				c-0.5,0-1,0-1.5,0c-0.5,0-0.9,0-1.3-0.1v13.9c-0.8,0.1-1.5,0.2-2.2,0.2s-1.4,0.1-2.1,0.1c-0.6,0-1.3,0-2.1-0.1
				c-0.8,0-1.5-0.1-2.3-0.2V353.1z M-171,375.3c0.5,0.1,0.9,0.1,1.4,0.1s0.9,0,1.5,0c1,0,2-0.1,2.9-0.4c1-0.3,1.8-0.7,2.6-1.3
				c0.7-0.6,1.3-1.4,1.8-2.4c0.4-1,0.7-2.2,0.7-3.6c0-1.5-0.2-2.7-0.7-3.8c-0.4-1-1-1.8-1.8-2.5c-0.7-0.6-1.6-1.1-2.6-1.3
				s-1.9-0.4-2.9-0.4c-0.4,0-0.9,0-1.2,0c-0.4,0-0.9,0.1-1.7,0.2V375.3z"/>
			<path d="M-144.7,353.2h24.5c0.2,1.2,0.4,2.4,0.4,3.7c0,1.3-0.1,2.6-0.4,3.8h-15.8v9.4h12.5c0.2,1.3,0.4,2.5,0.4,3.7
				c0,1.3-0.1,2.5-0.4,3.8h-12.5V389h16.2c0.2,1.2,0.4,2.4,0.4,3.7c0,1.3-0.1,2.6-0.4,3.8h-25V353.2z"/>
			<path d="M-112.4,353.2c1.8-0.2,3.4-0.4,5-0.5c1.5-0.1,3.3-0.2,5.1-0.2c2.2,0,4.4,0.2,6.5,0.6c2.1,0.4,4.1,1.1,5.8,2.1
				c1.7,1,3.1,2.4,4.2,4.1c1.1,1.7,1.6,4,1.6,6.6c0,1.6-0.2,3-0.6,4.2c-0.4,1.2-0.9,2.3-1.5,3.2c-0.6,0.9-1.3,1.7-2,2.4
				s-1.4,1.2-2,1.6l-1,0.7l10.5,18.3c-0.8,0.1-1.6,0.2-2.5,0.2c-0.9,0.1-1.8,0.1-2.7,0.1c-1.5,0-3-0.1-4.5-0.4l-11.3-20.1l1.4-0.7
				c0.6-0.3,1.2-0.6,2-1.1c0.8-0.4,1.6-1,2.3-1.7c0.7-0.7,1.4-1.5,1.9-2.4c0.5-0.9,0.8-2.1,0.8-3.3c0-2.5-0.7-4.4-2.2-5.6
				c-1.4-1.2-3.3-1.8-5.6-1.8c-0.9,0-1.7,0.1-2.4,0.2v36.5c-0.7,0.1-1.4,0.2-2.2,0.2c-0.7,0.1-1.4,0.1-2.1,0.1s-1.4,0-2.2-0.1
				c-0.8,0-1.5-0.1-2.3-0.2V353.2z"/>
		</g>
		<g>
			<path class="st0" d="M-464.6,414.9c0.3,0.4,0.5,0.9,0.6,1.4c0.2,0.5,0.3,1.1,0.3,1.7c0.1,0.6,0.1,1.2,0,1.7
				c0,0.6-0.1,1.1-0.3,1.6c-0.3,0.9-0.8,1.8-1.5,2.5c-0.7,0.7-1.5,1.2-2.5,1.5c-0.5,0.1-1,0.2-1.5,0.1c-0.5,0-1,0-1.5,0h-2.9v7.2
				l1.5,1.8h-7.4l1.1-1.5v-19.2l-1.4-1.4h1.4l8.9,0.1c1.1,0,2,0.2,2.9,0.6S-465.2,414-464.6,414.9z M-470.6,421.9
				c0.7,0,1.2-0.3,1.6-0.8c0.4-0.5,0.6-1.1,0.6-1.8c0-0.3-0.1-0.7-0.2-1.1c-0.1-0.4-0.3-0.8-0.5-1.1c-0.2-0.3-0.4-0.6-0.7-0.8
				c-0.3-0.2-0.6-0.3-1-0.3h-3v6h2.9H-470.6z"/>
			<path class="st0" d="M-445,434.3h-7.1l0.8-1.3l-5-8.1h0v7.6l1.5,1.8h-7.7l1.4-1.3v-19.3l-1.4-1.4h1.4l8.9,0c1.1,0,2,0.2,2.9,0.6
				c0.8,0.4,1.6,1,2.2,2c0.5,0.9,0.9,1.8,1,2.8c0.1,1,0,2-0.3,2.9c-0.1,0.5-0.3,0.9-0.6,1.4c-0.2,0.5-0.5,0.9-0.9,1.2
				c-0.3,0.4-0.7,0.7-1.1,1s-0.9,0.5-1.4,0.6c-0.1,0-0.2,0.1-0.4,0.1c-0.1,0-0.2,0-0.4,0L-445,434.3z M-456.4,421.5h2.9h0.2
				c0.3,0,0.6-0.1,0.9-0.3c0.3-0.2,0.5-0.4,0.7-0.7s0.3-0.6,0.5-0.9c0.1-0.3,0.2-0.7,0.2-1c0-0.3-0.1-0.7-0.2-1
				c-0.1-0.3-0.3-0.6-0.5-0.9c-0.2-0.3-0.4-0.5-0.7-0.6c-0.3-0.2-0.6-0.2-1-0.2h-3V421.5z"/>
			<path class="st0" d="M-428.6,430.1l1.5,4.3h-17l1.2-1.7v-18.9l-1.2-1.5h17l-1.5,4.3h-9.3v4.7h7.6l-1.2,3.8h-6.4v5H-428.6z"/>
			<path class="st0" d="M-405.5,432.9l0-10l-6.5,11.5l-6.9-11.4v10.1l1.3,1.3h-7.7l1.3-1.6v-18.9l-1.3-1.8h6.2l7.1,13l6.3-11.7
				l-1.2-1.4h7.6l-1.1,1.4v19.7l1.3,1.3h-7.8L-405.5,432.9z"/>
			<path class="st0" d="M-391,434.3l-1.1,0h-5.1v0l-0.8,0l0.8-0.8v-18.6l-1.2-1.2l6.2-1.5v20.8L-391,434.3z"/>
			<path class="st0" d="M-369.4,412.3v13.7c-0.1,1.3-0.4,2.5-1,3.5s-1.3,2-2.1,2.7c-0.9,0.7-1.9,1.3-2.9,1.7
				c-1.1,0.4-2.2,0.6-3.3,0.6s-2.2-0.2-3.3-0.6c-1.1-0.4-2.1-1-2.9-1.7c-0.9-0.7-1.6-1.6-2.2-2.7c-0.6-1.1-0.9-2.2-1-3.6v-10.8
				l-1.4-0.9l6.1-1.9v12.5v0.2c0,0.2,0,0.4,0.1,0.6c0,0.1,0,0.2,0.1,0.3c0,0.1,0.1,0.2,0.1,0.3c0,0.1,0.1,0.2,0.1,0.3
				c0,0.1,0.1,0.2,0.1,0.3c0.1,0.2,0.3,0.4,0.4,0.6c0.1,0.1,0.2,0.2,0.3,0.4s0.3,0.2,0.4,0.3c0.1,0.1,0.2,0.2,0.3,0.3
				s0.3,0.1,0.4,0.2c0.2,0.1,0.5,0.2,0.8,0.3c0.3,0.1,0.6,0.2,0.8,0.2c0.3,0,0.6,0.1,0.8,0c0.3,0,0.5,0,0.8-0.1
				c0.1,0,0.3-0.1,0.4-0.1c0.1,0,0.3-0.1,0.4-0.1c0.5-0.2,1-0.4,1.4-0.8c0.2-0.2,0.4-0.3,0.5-0.5c0.1-0.1,0.2-0.2,0.3-0.3
				c0.1-0.1,0.2-0.2,0.2-0.3c0.1-0.1,0.1-0.2,0.2-0.3c0.1-0.1,0.1-0.3,0.2-0.5c0.1-0.2,0.1-0.3,0.1-0.5c0,0,0-0.1,0-0.3l-0.1-10.4
				l-1.2-1L-369.4,412.3z"/>
			<path class="st0" d="M-346,432.9l0-10l-6.5,11.5l-6.9-11.4v10.1l1.3,1.3h-7.7l1.3-1.6v-18.9l-1.3-1.8h6.2l7.1,13l6.3-11.7
				l-1.2-1.4h7.6l-1.1,1.4v19.7l1.3,1.3h-7.8L-346,432.9z"/>
			<path class="st0" d="M-306.4,422.9c0,0.7-0.1,1.5-0.2,2.2c-0.1,0.8-0.3,1.5-0.6,2.2c-0.3,0.7-0.6,1.4-1,2
				c-0.4,0.6-0.8,1.2-1.3,1.7l3,3.4h-4.9l-1.1-1.2c-1.3,0.6-2.7,1-4.2,1s-2.8-0.3-4.1-1c-1.2-0.6-2.3-1.5-3.2-2.6
				c-0.9-1.1-1.6-2.3-2.1-3.6c-0.5-1.3-0.8-2.7-0.8-4.2c0-1.4,0.3-2.8,0.8-4.1c0.5-1.3,1.2-2.5,2.1-3.5c0.9-1,2-1.8,3.2-2.4
				c1.2-0.6,2.6-0.9,4.1-0.9s2.8,0.3,4.1,0.9c1.2,0.6,2.3,1.4,3.2,2.4c0.9,1,1.6,2.2,2.1,3.5C-306.7,420.2-306.4,421.5-306.4,422.9z
				 M-316.6,429.3c0.1,0,0.3,0,0.4,0c0.1,0,0.3,0,0.4,0l-1.5-1.7l3.1-2.1l1.6,1.8c0.2-0.3,0.4-0.5,0.6-0.8c0.3-0.6,0.5-1.1,0.6-1.7
				c0.1-0.4,0.2-1,0.2-1.5c0-0.6,0-1.1-0.1-1.5c-0.1-0.4-0.2-0.8-0.4-1.3c-0.1-0.2-0.2-0.4-0.3-0.6c-0.1-0.2-0.2-0.4-0.3-0.5
				c-0.1-0.1-0.2-0.3-0.3-0.4c-0.1-0.1-0.2-0.3-0.4-0.4c-0.1-0.1-0.3-0.3-0.5-0.4c-0.2-0.1-0.3-0.2-0.5-0.3
				c-0.3-0.2-0.6-0.4-0.9-0.4c-0.5-0.2-1.1-0.3-1.7-0.3c-0.4,0-0.7,0-1,0.1c-0.3,0.1-0.6,0.2-0.8,0.3c-0.3,0.1-0.6,0.3-0.9,0.5
				c-0.3,0.2-0.6,0.5-0.9,0.8c-0.3,0.3-0.6,0.7-0.8,1.1c-0.3,0.6-0.5,1.1-0.6,1.7c-0.1,0.4-0.2,1-0.2,1.5c0,0.6,0,1.1,0.1,1.5
				c0.1,0.4,0.2,0.8,0.4,1.3c0.1,0.2,0.2,0.4,0.3,0.6c0.1,0.2,0.2,0.4,0.3,0.6c0.2,0.3,0.4,0.5,0.7,0.8c0.3,0.3,0.6,0.5,0.9,0.8
				c0.3,0.2,0.6,0.4,0.9,0.4C-317.8,429.2-317.2,429.3-316.6,429.3z"/>
			<path class="st0" d="M-284.7,412.3v13.7c-0.1,1.3-0.4,2.5-1,3.5s-1.3,2-2.1,2.7c-0.9,0.7-1.9,1.3-2.9,1.7
				c-1.1,0.4-2.2,0.6-3.3,0.6s-2.2-0.2-3.3-0.6c-1.1-0.4-2.1-1-2.9-1.7c-0.9-0.7-1.6-1.6-2.2-2.7c-0.6-1.1-0.9-2.2-1-3.6v-10.8
				l-1.4-0.9l6.1-1.9v12.5v0.2c0,0.2,0,0.4,0.1,0.6c0,0.1,0,0.2,0.1,0.3c0,0.1,0.1,0.2,0.1,0.3c0,0.1,0.1,0.2,0.1,0.3
				c0,0.1,0.1,0.2,0.1,0.3c0.1,0.2,0.3,0.4,0.4,0.6c0.1,0.1,0.2,0.2,0.3,0.4s0.3,0.2,0.4,0.3c0.1,0.1,0.2,0.2,0.3,0.3
				s0.3,0.1,0.4,0.2c0.2,0.1,0.5,0.2,0.8,0.3c0.3,0.1,0.6,0.2,0.8,0.2c0.3,0,0.6,0.1,0.8,0c0.3,0,0.5,0,0.8-0.1
				c0.1,0,0.3-0.1,0.4-0.1c0.1,0,0.3-0.1,0.4-0.1c0.5-0.2,1-0.4,1.4-0.8c0.2-0.2,0.4-0.3,0.5-0.5c0.1-0.1,0.2-0.2,0.3-0.3
				c0.1-0.1,0.2-0.2,0.2-0.3c0.1-0.1,0.1-0.2,0.2-0.3c0.1-0.1,0.1-0.3,0.2-0.5c0.1-0.2,0.1-0.3,0.1-0.5c0,0,0-0.1,0-0.3l-0.1-10.4
				l-1.2-1L-284.7,412.3z"/>
			<path class="st0" d="M-263.5,433.1l1.5,1.3h-6.5l-1.3-4.3h-6.1l-0.8,2.8l0.6,1.5h-6.5l6.8-19.6l-0.8-0.9l6.1-1.7L-263.5,433.1z
				 M-274.8,426.7h4l-2-6.7L-274.8,426.7z"/>
			<path class="st0" d="M-246.3,430.6l-1.5,3.7h-13V415l-1.2-1.2l6.2-1.5v18.3H-246.3z"/>
			<path class="st0" d="M-237.7,434.3l-1.1,0h-5.1v0l-0.8,0l0.8-0.8v-18.6l-1.2-1.2l6.2-1.5v20.8L-237.7,434.3z"/>
			<path class="st0" d="M-225.6,416.4v16.6l1.1,1.4l-1.1,0h-5.1v0h-1l1-1.3v-16.6h-5.9l1.2-3.7l16.6-0.1l-1.3,3.8H-225.6z"/>
			<path class="st0" d="M-206.6,432.8l1.1,1.4l-1.1,0h-5.1v-0.1h-0.9l0.9-1.1v-9l-6.9-11.7h5.8l3.8,6.9l3.2-5.8l-0.7-1.2h6.7
				l-6.9,11.4V432.8z"/>
			<path class="st0" d="M-172.2,414.9c0.3,0.4,0.5,0.9,0.6,1.4c0.2,0.5,0.3,1.1,0.3,1.7c0.1,0.6,0.1,1.2,0,1.7
				c0,0.6-0.1,1.1-0.3,1.6c-0.3,0.9-0.8,1.8-1.5,2.5c-0.7,0.7-1.5,1.2-2.5,1.5c-0.5,0.1-1,0.2-1.5,0.1c-0.5,0-1,0-1.5,0h-2.9v7.2
				l1.5,1.8h-7.4l1.1-1.5v-19.2l-1.4-1.4h1.4l8.9,0.1c1.1,0,2,0.2,2.9,0.6C-173.5,413.3-172.8,414-172.2,414.9z M-178.2,421.9
				c0.7,0,1.2-0.3,1.6-0.8c0.4-0.5,0.6-1.1,0.6-1.8c0-0.3-0.1-0.7-0.2-1.1c-0.1-0.4-0.3-0.8-0.5-1.1c-0.2-0.3-0.4-0.6-0.7-0.8
				s-0.6-0.3-1-0.3h-3v6h2.9H-178.2z"/>
			<path class="st0" d="M-152,433.1l1.5,1.3h-6.5l-1.3-4.3h-6.1l-0.8,2.8l0.6,1.5h-6.5l6.8-19.6l-0.8-0.9l6.1-1.7L-152,433.1z
				 M-163.3,426.7h4l-2-6.7L-163.3,426.7z"/>
			<path class="st0" d="M-135.3,414.9c0.3,0.4,0.5,0.9,0.6,1.4c0.2,0.5,0.3,1.1,0.3,1.7c0.1,0.6,0.1,1.2,0,1.7
				c0,0.6-0.1,1.1-0.3,1.6c-0.3,0.9-0.8,1.8-1.5,2.5c-0.7,0.7-1.5,1.2-2.5,1.5c-0.5,0.1-1,0.2-1.5,0.1c-0.5,0-1,0-1.5,0h-2.9v7.2
				l1.5,1.8h-7.4l1.1-1.5v-19.2l-1.4-1.4h1.4l8.9,0.1c1.1,0,2,0.2,2.9,0.6C-136.6,413.3-135.9,414-135.3,414.9z M-141.3,421.9
				c0.7,0,1.2-0.3,1.6-0.8c0.4-0.5,0.6-1.1,0.6-1.8c0-0.3-0.1-0.7-0.2-1.1c-0.1-0.4-0.3-0.8-0.5-1.1c-0.2-0.3-0.4-0.6-0.7-0.8
				s-0.6-0.3-1-0.3h-3v6h2.9H-141.3z"/>
			<path class="st0" d="M-117.3,430.1l1.5,4.3h-17l1.2-1.7v-18.9l-1.2-1.5h17l-1.5,4.3h-9.3v4.7h7.6l-1.2,3.8h-6.4v5H-117.3z"/>
			<path class="st0" d="M-97.1,434.3h-7.1l0.8-1.3l-5-8.1h0v7.6l1.5,1.8h-7.7l1.4-1.3v-19.3l-1.4-1.4h1.4l8.9,0c1.1,0,2,0.2,2.9,0.6
				c0.8,0.4,1.6,1,2.2,2c0.5,0.9,0.9,1.8,1,2.8c0.1,1,0,2-0.3,2.9c-0.1,0.5-0.3,0.9-0.6,1.4c-0.2,0.5-0.5,0.9-0.9,1.2
				c-0.3,0.4-0.7,0.7-1.1,1c-0.4,0.3-0.9,0.5-1.4,0.6c-0.1,0-0.2,0.1-0.4,0.1c-0.1,0-0.2,0-0.4,0L-97.1,434.3z M-108.4,421.5h2.9
				h0.2c0.3,0,0.6-0.1,0.9-0.3c0.3-0.2,0.5-0.4,0.7-0.7s0.3-0.6,0.5-0.9c0.1-0.3,0.2-0.7,0.2-1c0-0.3-0.1-0.7-0.2-1
				c-0.1-0.3-0.3-0.6-0.5-0.9c-0.2-0.3-0.4-0.5-0.7-0.6c-0.3-0.2-0.6-0.2-1-0.2h-3V421.5z"/>
			<path class="st0" d="M-80.6,427.8c0,0.1,0,0.2,0,0.3c0,0.1,0,0.3,0,0.4c0,0.1,0,0.2,0,0.4c0,0.1,0,0.2-0.1,0.3
				c-0.1,0.3-0.1,0.5-0.2,0.7c-0.2,0.5-0.4,0.9-0.7,1.3c-0.1,0.3-0.3,0.5-0.5,0.7c-0.3,0.3-0.6,0.6-1,0.9c0,0,0,0,0,0s0,0,0,0
				c0,0,0,0,0,0s0,0,0,0c-0.2,0.1-0.4,0.3-0.6,0.4c-0.2,0.1-0.4,0.2-0.7,0.3c-0.3,0.1-0.6,0.3-0.9,0.3c-0.2,0-0.4,0.1-0.6,0.1
				c-0.2,0-0.4,0.1-0.6,0.1c-0.2,0-0.4,0.1-0.6,0.1c-0.2,0-0.4,0-0.6,0.1c-0.2,0-0.4,0-0.6,0c-0.2,0-0.4,0-0.6,0h-0.6
				c-0.1,0-0.2,0-0.3,0c-0.1,0-0.2,0-0.3,0c-0.2,0-0.4,0-0.6-0.1c-0.2,0-0.4-0.1-0.6-0.1c-0.4-0.1-0.8-0.2-1.1-0.3
				c-0.4-0.1-0.8-0.3-1.2-0.5c-0.2-0.1-0.4-0.2-0.5-0.3c-0.2-0.1-0.4-0.2-0.5-0.3c-0.3-0.2-0.6-0.5-0.9-0.8
				c-0.3-0.3-0.6-0.6-0.8-0.9c-0.1-0.1-0.2-0.2-0.2-0.3c-0.1-0.1-0.1-0.2-0.2-0.4l4.9-3.5l-0.2,1.8c0.5,0.5,1,0.8,1.7,1.1
				s1.3,0.4,2,0.3c0.4,0,0.8-0.1,1.2-0.2c0.4-0.1,0.7-0.3,1.1-0.6c0.4-0.3,0.6-0.6,0.6-1c0-0.4-0.1-0.8-0.4-1.1
				c-0.2-0.2-0.5-0.4-0.9-0.7s-0.8-0.4-1.3-0.5c-0.4-0.2-0.9-0.3-1.3-0.4c-0.4-0.1-0.8-0.2-1-0.3c-0.8-0.2-1.6-0.5-2.3-0.7
				s-1.5-0.7-2.1-1.3c0,0-0.1-0.1-0.1-0.1c-0.1-0.1-0.2-0.1-0.2-0.2c-0.1-0.1-0.1-0.1-0.2-0.2c-0.1-0.1-0.1-0.2-0.2-0.2
				s-0.1-0.2-0.2-0.2c-0.3-0.4-0.5-0.7-0.7-1.2c-0.1-0.2-0.2-0.4-0.3-0.6c-0.1-0.2-0.1-0.4-0.2-0.7c0-0.2-0.1-0.3-0.1-0.5
				c0-0.2,0-0.3,0-0.5c0-0.1,0-0.3,0-0.4c0-0.1,0-0.3,0-0.4c0-0.1,0-0.2,0-0.3s0-0.2,0.1-0.4c0-0.1,0.1-0.2,0.1-0.3
				c0-0.1,0.1-0.2,0.1-0.3c0.2-0.5,0.4-0.9,0.7-1.3c0.1-0.1,0.2-0.3,0.3-0.4c0.1-0.1,0.2-0.2,0.3-0.3c0.3-0.3,0.6-0.6,1-0.9l0.1-0.1
				c0,0,0,0,0,0s0,0,0,0c0.3-0.3,0.7-0.5,1.2-0.7c0.2-0.1,0.3-0.1,0.5-0.2c0.1-0.1,0.3-0.1,0.5-0.1c0.4-0.1,0.8-0.2,1.2-0.3
				c0.2,0,0.4-0.1,0.5-0.1c0.2,0,0.4,0,0.6,0c0.2,0,0.4,0,0.5,0c0.2,0,0.4,0,0.6,0h0.5c0.1,0,0.2,0,0.3,0c0.1,0,0.2,0,0.3,0
				c0.2,0,0.4,0,0.6,0.1c0.2,0,0.4,0.1,0.6,0.1c0.4,0.1,0.8,0.2,1.1,0.3c0.4,0.1,0.8,0.3,1.2,0.5c0.3,0.2,0.7,0.4,1.1,0.7
				c0.3,0.2,0.6,0.5,0.9,0.8s0.6,0.6,0.8,0.9c0.1,0.2,0.3,0.4,0.4,0.7l-5.1,3.5l0.3-1.8c-0.5-0.5-1-0.8-1.7-1.1
				c-0.6-0.2-1.3-0.3-2-0.3c-0.4,0-0.8,0.1-1.2,0.2c-0.4,0.1-0.7,0.3-1.1,0.6c-0.3,0.3-0.5,0.6-0.6,1c0,0.4,0.1,0.8,0.4,1.1
				c0.2,0.2,0.5,0.4,0.9,0.6c0.4,0.2,0.8,0.4,1.2,0.5c0.4,0.2,0.9,0.3,1.3,0.4c0.4,0.1,0.8,0.2,1,0.3c0.8,0.3,1.6,0.5,2.3,0.8
				s1.4,0.7,2.1,1.3c0.4,0.4,0.8,0.7,1,1.1c0.3,0.4,0.5,0.7,0.6,1c0.2,0.3,0.3,0.7,0.3,1c0.1,0.3,0.1,0.6,0.2,0.8c0,0.1,0,0.2,0,0.3
				C-80.6,427.5-80.6,427.6-80.6,427.8z"/>
		</g>
	</g>
	<g>
		<path class="st1" d="M-278.3,81.6c32.4,0,64.9,0,97.3,0c8.9,0,11.4,2.6,11.5,11.4c0,51.6,0,103.3,0,154.9
			c0,11.4-1.2,13.3-11.9,17.3c-22.6,8.4-45.2,16.6-67.8,25c-25.8,9.5-51.5,19.1-77.2,28.7c-29.9,11.2-61.6-9.5-61.8-41.2
			c-0.4-61.8-0.2-123.5-0.3-185.3c0-7.6,3.3-10.8,11-10.8C-344.4,81.6-311.3,81.6-278.3,81.6z"/>
		<path class="st2" d="M-378.3,178.2c0-25.4,0.1-50.8-0.3-76.2c-0.1-5,1.8-5.6,6-5.6c62.4,0.1,124.8,0.1,187.2,0
			c4.1,0,5.8,0.7,5.6,5.3c-0.4,12.8-0.3,25.6-0.4,38.4c-2.2,2.1-5,1.7-7.6,1.7c-45.8,0-91.5,0-137.3,0.1c-2.2,0-4.4-0.9-6.5-0.1
			c23.1,6.2,33.5,35.5,18.7,55.4c-13.1,17.6-34.8,20.7-52.5,7.7c-6.2-4.5-10.3-10.6-11.9-18.2C-378.1,184-377.5,181-378.3,178.2z"/>
		<path class="st3" d="M-182.5,161.1c2.9-0.4,2.7,1.6,2.7,3.5c0,24.2-0.1,48.3,0.1,72.5c0,5.1-3.4,3.6-5.9,3.6
			c-45.8,0.1-91.7,0-137.5,0c-3,0-6,0-10.3,0c2.1,1.1,3.1,1.7,4.1,2.2c17.5,8,25.9,25,21,42.5c-4.8,17.1-21.6,28.1-39.4,25.7
			c-17.6-2.4-30.5-17.5-30.7-36.4c-0.2-19.2,0-38.4,0-57.6c0.4-0.5,1-0.8,1.7-0.8c7,2.9,13.5,6.9,21.3,8.1
			c9.3,1.5,18.1,0.5,26.7-3.1c42.5-17.7,84.8-35.7,127.3-53.6C-195.4,165.2-189.5,161.4-182.5,161.1z"/>
		<path class="st4" d="M-182.5,161.1c-21.9,9.4-43.8,18.9-65.7,28.2c-26.3,11.2-52.6,22.4-79,33.3c-17.6,7.3-34.4,5.5-50-5.7
			c-1.3-9.9-0.5-19.9-0.5-29.8c0-0.9,0.8-0.7,1.3-0.9c6.2,16.4,19.6,26,34.9,25.1c16.2-1,28.9-11.4,33-26.9
			c4.7-18.2-6.7-37.1-25.2-41.9c-0.1-2.5,1.9-1.7,3.1-1.7c49.6,0,99.2-0.1,148.8,0c0.7,0,1.2,0.3,1.7,0.6c0,4.7-0.1,9.3,0.1,14
			C-179.9,157.8-180.7,159.7-182.5,161.1z"/>
		<path class="st5" d="M-180.1,141.4c-48.9,0-97.7,0-146.6,0.1c-2.3,0-5-1.1-7,1.1c-2,0.5-3.6-0.3-6.6-2.4c54.3,0,107.2,0,160.1,0
			C-180.1,140.5-180.1,141-180.1,141.4z"/>
		<path class="st4" d="M-376.4,186.2c-2,10.2-0.4,20.5-0.9,30.7c-0.4,0-0.8,0.1-1.2,0.3c0-13,0.1-26,0.1-39
			C-377.7,180.9-377,183.5-376.4,186.2z"/>
		<line class="st6" x1="-180.5" y1="140.8" x2="-340.9" y2="140.8"/>
		<path class="st1" d="M-342.9,248.3c-15.2,0-27.6,12.3-27.6,27.6h55.2C-315.3,260.6-327.6,248.3-342.9,248.3z"/>
		<path class="st1" d="M-342.9,148.7c-15.2,0-27.6,12.3-27.6,27.6h55.2C-315.3,161.1-327.6,148.7-342.9,148.7z"/>
		<path class="st7" d="M-377,181"/>
	</g>
</g>
<g>
	<path class="st8" d="M430,83.1c0-14-4.1-18.1-18.2-18.1c-51.5,0-103.1,0-154.6,0c-52.5,0-105.1,0-157.6,0C87.3,65,82,70.1,82,82.2
		c0,98.2-0.2,196.3,0.4,294.5c0.3,50.3,50.6,83.3,98.1,65.4c40.9-15.4,81.8-30.5,122.8-45.7c35.9-13.3,71.8-26.4,107.7-39.7
		c16.9-6.3,18.9-9.4,18.9-27.5C430,247.2,430,165.1,430,83.1z M404.3,317.9c-72.9,0.1-145.7,0.1-218.6,0.1c-4.8,0-9.6,0-16.4,0
		c3.4,1.8,4.9,2.7,6.6,3.5c27.8,12.7,41.1,39.7,33.4,67.5c-7.6,27.2-34.3,44.6-62.5,40.9C118.8,426,98.2,402,98,372
		c-0.2-30.5,0-61,0-91.6c0,0,0,0,0,0c0.6-0.2,1.2-0.4,1.9-0.4v0c24.8,17.8,51.5,20.7,79.4,9.1c42-17.4,83.8-35.2,125.6-53
		c34.9-14.8,69.6-29.9,104.4-44.8c4.6-0.6,4.3,2.6,4.3,5.6c0,38.4-0.1,76.8,0.1,115.2C413.7,320.3,408.2,317.9,404.3,317.9z
		 M413.7,96.9c-0.7,20.3-0.5,40.7-0.6,61c0,0.7,0,1.3,0,2c-1.1,0-2.2,0-3.2,0c-76.6,0-153.2,0-229.8,0.1c-3.7,0-7.9-1.8-11.1,1.7v0
		c29.4,7.6,47.5,37.6,40,66.6c-6.4,24.7-26.7,41.3-52.4,42.8c-24.3,1.5-45.6-13.9-55.5-39.9c-1-4.2-2-8.4-3.1-12.6c0,0,0,0,0,0
		c-0.1-40.4,0.1-80.8-0.4-121.2c-0.1-8,2.8-8.9,9.6-8.8c99.2,0.2,198.3,0.2,297.5,0C411.3,88.5,414,89.6,413.7,96.9z"/>
	<path class="st8" d="M110.6,373.6h87.7c0-24.2-19.6-43.8-43.8-43.8C130.2,329.8,110.6,349.4,110.6,373.6z"/>
	<path class="st8" d="M110.6,215.4h87.7c0-24.2-19.6-43.8-43.8-43.8C130.2,171.6,110.6,191.2,110.6,215.4z"/>
</g>
<g>
	<path class="st9" d="M430,83.1c0-14-4.1-18.1-18.2-18.1c-51.5,0-103.1,0-154.6,0c-52.5,0-105.1,0-157.6,0C87.3,65,82,70.1,82,82.2
		c0,98.2-0.2,196.3,0.4,294.5c0.3,50.3,50.6,83.3,98.1,65.4c40.9-15.4,81.8-30.5,122.8-45.7c35.9-13.3,71.8-26.4,107.7-39.7
		c16.9-6.3,18.9-9.4,18.9-27.5C430,247.2,430,165.1,430,83.1z M404.3,317.9c-72.9,0.1-145.7,0.1-218.6,0.1c-4.8,0-9.6,0-16.4,0
		c3.4,1.8,4.9,2.7,6.6,3.5c27.8,12.7,41.1,39.7,33.4,67.5c-7.6,27.2-34.3,44.6-62.5,40.9C118.8,426,98.2,402,98,372
		c-0.2-30.5,0-61,0-91.6c0,0,0,0,0,0c0.6-0.2,1.2-0.4,1.9-0.4v0c24.8,17.8,51.5,20.7,79.4,9.1c42-17.4,83.8-35.2,125.6-53
		c34.9-14.8,69.6-29.9,104.4-44.8c4.6-0.6,4.3,2.6,4.3,5.6c0,38.4-0.1,76.8,0.1,115.2C413.7,320.3,408.2,317.9,404.3,317.9z
		 M413.7,96.9c-0.7,20.3-0.5,40.7-0.6,61c0,0.7,0,1.3,0,2c-1.1,0-2.2,0-3.2,0c-76.6,0-153.2,0-229.8,0.1c-3.7,0-7.9-1.8-11.1,1.7v0
		c29.4,7.6,47.5,37.6,40,66.6c-6.4,24.7-26.7,41.3-52.4,42.8c-24.3,1.5-45.6-13.9-55.5-39.9c-1-4.2-2-8.4-3.1-12.6c0,0,0,0,0,0
		c-0.1-40.4,0.1-80.8-0.4-121.2c-0.1-8,2.8-8.9,9.6-8.8c99.2,0.2,198.3,0.2,297.5,0C411.3,88.5,414,89.6,413.7,96.9z"/>
	<path class="st9" d="M110.6,373.6h87.7c0-24.2-19.6-43.8-43.8-43.8C130.2,329.8,110.6,349.4,110.6,373.6z"/>
	<path class="st9" d="M110.6,215.4h87.7c0-24.2-19.6-43.8-43.8-43.8C130.2,171.6,110.6,191.2,110.6,215.4z"/>
</g>
</svg>
