<svg id="Layer_1" data-name="Layer 1" xmlns="http://www.w3.org/2000/svg" viewBox="0 0 128 128"><defs><style>.cls-1{fill:#060506;}.cls-2{fill:#00e6fe;}.cls-3{fill:#c7fe00;}.cls-4{fill:#010001;}.cls-5{fill:#03b0c2;}.cls-6{fill:none;stroke:#00e6fe;stroke-miterlimit:10;stroke-width:1.77px;}</style></defs><title>favicon</title><path class="cls-1" d="M64.33,6.9h46.23c4.21,0,5.44,1.21,5.44,5.39V85.91c0,5.41-.59,6.33-5.65,8.21C99.63,98.1,88.88,102,78.16,106q-18.36,6.8-36.69,13.65c-14.2,5.33-29.24-4.52-29.34-19.56C12,70.74,12,41.39,12,12.05c0-3.62,1.57-5.14,5.22-5.14Q40.78,6.88,64.33,6.9Z"/><path class="cls-2" d="M16.8,52.79c0-12.07,0-24.14-.12-36.21,0-2.4.84-2.65,2.86-2.65q44.47.09,88.93,0c2,0,2.75.33,2.68,2.51-.2,6.08-.14,12.17-.19,18.25-1,1-2.36.83-3.62.83q-32.59,0-65.2,0c-1,0-2.07-.43-3.09,0,11,3,15.94,16.84,8.87,26.33-6.23,8.38-16.54,9.84-25,3.67a14.08,14.08,0,0,1-5.66-8.65C16.89,55.53,17.19,54.12,16.8,52.79Z"/><path class="cls-3" d="M109.81,44.67c1.39-.17,1.29.78,1.29,1.68,0,11.48,0,23,0,34.43,0,2.45-1.63,1.72-2.81,1.72q-32.67,0-65.34,0H38.09c1,.53,1.48.81,2,1,8.3,3.8,12.3,11.86,10,20.17a17,17,0,0,1-18.7,12.21c-8.36-1.11-14.51-8.31-14.58-17.27-.07-9.12,0-18.24,0-27.37a1,1,0,0,1,.8-.37c3.33,1.37,6.4,3.26,10.1,3.85a22.8,22.8,0,0,0,12.67-1.47q30.27-12.65,60.45-25.48C103.71,46.59,106.48,44.81,109.81,44.67Z"/><path class="cls-4" d="M109.81,44.67c-10.4,4.47-20.8,9-31.22,13.4-12.5,5.31-25,10.63-37.54,15.83-8.36,3.46-16.33,2.61-23.74-2.73-.64-4.71-.22-9.44-.22-14.17,0-.43.39-.33.63-.43,3,7.79,9.31,12.37,16.59,11.94A16.82,16.82,0,0,0,50,55.72a16.48,16.48,0,0,0-12-19.9c0-1.19.91-.8,1.47-.8q35.33,0,70.66,0a2.14,2.14,0,0,1,.83.27c0,2.21-.06,4.43,0,6.64A3.06,3.06,0,0,1,109.81,44.67Z"/><path class="cls-5" d="M111,35.28q-34.81,0-69.64,0c-1.1,0-2.36-.54-3.32.51-.94.24-1.7-.13-3.11-1.13H111Z"/><path class="cls-4" d="M17.72,56.57c-1,4.84-.18,9.74-.41,14.6a2.17,2.17,0,0,0-.56.13q0-9.26.05-18.51C17.11,54.05,17.41,55.31,17.72,56.57Z"/><line class="cls-6" x1="110.79" y1="34.99" x2="34.58" y2="34.99"/><path class="cls-1" d="M33.64,86.06a13.11,13.11,0,0,0-13.1,13.1h26.2A13.1,13.1,0,0,0,33.64,86.06Z"/><path class="cls-1" d="M33.64,38.77a13.11,13.11,0,0,0-13.1,13.1h26.2A13.1,13.1,0,0,0,33.64,38.77Z"/></svg>