<?xml version="1.0" encoding="utf-8"?>
<!-- Generator: Adobe Illustrator 23.0.5, SVG Export Plug-In . SVG Version: 6.00 Build 0)  -->
<svg version="1.1" id="Layer_1" xmlns="http://www.w3.org/2000/svg" xmlns:xlink="http://www.w3.org/1999/xlink" x="0px" y="0px"
	 viewBox="0 0 280 280" style="enable-background:new 0 0 280 280;" xml:space="preserve">
<style type="text/css">
	.st0{fill-rule:evenodd;clip-rule:evenodd;fill:#212626;}
	.st1{fill-rule:evenodd;clip-rule:evenodd;fill:#DF9E38;}
	.st2{fill-rule:evenodd;clip-rule:evenodd;}
</style>
<g>
	<path class="st0" d="M223,55.5h24.5V196H223v-57.3h19.7v-28.3H223V55.5z M206.4,55.5v33.8h-24.5V78.7L163,78.5
		c-9.5,0-14.9,0.4-14.9,10.3V151c0,9.4-2,20.8,10.9,20.8h22.9v-57.5h24.5v81h-49.2c-32.3-0.3-32.3-23.9-32.3-44.7V89.7
		c0-24.6,16.6-35,39.9-34.7L206.4,55.5L206.4,55.5z M32.5,55.5v139.8h46.2c30.2-0.3,33.6-23,33.6-45.4V89.1
		c0.2-25.9-16.8-34.3-39.4-34.1L32.5,55.5L32.5,55.5z M88.8,151V88.8c0-9.9-5.3-10.3-14.6-10.3l-18.4,0.3v93.1h22
		C90.7,171.8,88.8,159.5,88.8,151L88.8,151z"/>
	<path class="st1" d="M155.6,113h24v23h-24V113z M215.9,113h24v23h-24V113z"/>
	<path class="st2" d="M36.9,211.2v11.2H37c0.3,0,0.6-0.1,0.7-0.2c0.1-0.1,0.2-0.4,0.2-0.7v-9.5c0-0.4-0.1-0.6-0.2-0.7
		C37.6,211.2,37.3,211.2,36.9,211.2L36.9,211.2z M33.8,224.6v-15.5h3.6c1.3,0,2.3,0.3,2.8,0.9c0.6,0.6,0.8,1.6,0.8,3v7.9
		c0,1.4-0.3,2.4-0.9,3c-0.6,0.6-1.6,0.9-3,0.9L33.8,224.6L33.8,224.6z M41.9,224.6v-15.5H45v15.5L41.9,224.6L41.9,224.6z
		 M45.9,212.8c0-1.5,0.3-2.5,0.8-3.1c0.6-0.6,1.5-0.9,2.8-0.9c1.2,0,2.1,0.3,2.7,0.8c0.6,0.6,0.9,1.4,0.9,2.6v2.3h-3.1v-2.8
		c0-0.3,0-0.5-0.1-0.6c-0.1-0.1-0.2-0.2-0.4-0.2c-0.2,0-0.3,0.1-0.4,0.2c-0.1,0.1-0.1,0.3-0.1,0.6v10.1c0,0.3,0,0.5,0.1,0.6
		c0.1,0.1,0.2,0.2,0.4,0.2c0.2,0,0.3-0.1,0.4-0.2c0.1-0.1,0.1-0.3,0.1-0.6v-2.7h-0.8v-2.4h3.9v7.9h-1.5l-0.2-1
		c-0.4,0.5-0.8,0.8-1.2,1c-0.4,0.2-0.9,0.3-1.4,0.3c-1,0-1.7-0.3-2.2-1c-0.5-0.7-0.7-1.7-0.7-3V212.8L45.9,212.8z M54,224.6v-15.5
		h3.1v15.5L54,224.6L54,224.6z M59.7,224.6v-13.3h-2v-2.2h7v2.2h-2v13.3H59.7L59.7,224.6z M64.4,224.6l2.5-15.5h4l1.8,15.5h-3.2
		l-0.3-4.1h-1.5l-0.4,4.1L64.4,224.6L64.4,224.6z M67.9,218.2H69l-0.3-4.7c0-0.5,0-1-0.1-1.4c0-0.2,0-0.5,0-0.7h-0.1
		c0,0.6-0.1,1.1-0.1,1.4c0,0.2,0,0.5-0.1,0.7L67.9,218.2L67.9,218.2z M73.3,224.6v-15.5h3.1v13.2h2.7v2.3L73.3,224.6L73.3,224.6z
		 M83.9,212.8c0-1.5,0.3-2.5,0.8-3.1c0.6-0.6,1.5-0.9,2.8-0.9c1.2,0,2.1,0.3,2.7,0.8c0.6,0.6,0.9,1.4,0.9,2.6v2.3h-3.1v-2.8
		c0-0.3,0-0.5-0.1-0.6c-0.1-0.1-0.2-0.2-0.4-0.2c-0.2,0-0.3,0.1-0.4,0.2c-0.1,0.1-0.1,0.3-0.1,0.6v10.1c0,0.3,0,0.5,0.1,0.6
		c0.1,0.1,0.2,0.2,0.4,0.2c0.2,0,0.3-0.1,0.4-0.2c0.1-0.1,0.1-0.3,0.1-0.6v-2.7h-0.8v-2.4h3.9v7.9h-1.5l-0.2-1
		c-0.4,0.5-0.8,0.8-1.2,1c-0.4,0.2-0.9,0.3-1.4,0.3c-1,0-1.7-0.3-2.2-1c-0.5-0.7-0.7-1.7-0.7-3L83.9,212.8L83.9,212.8L83.9,212.8z
		 M96.2,214.4v-2.5c0-0.4-0.1-0.6-0.2-0.7c-0.1-0.1-0.4-0.2-0.8-0.2v4.2h0.2c0.3,0,0.6-0.1,0.7-0.2C96.1,215,96.2,214.7,96.2,214.4
		L96.2,214.4z M92.1,224.6v-15.5h3.6c1.3,0,2.2,0.2,2.7,0.7c0.6,0.4,0.9,1.2,0.9,2.1v1.6c0,0.8-0.2,1.4-0.6,1.9
		c-0.4,0.4-1,0.7-1.8,0.7v0.1c0.9,0.1,1.5,0.3,1.9,0.7c0.4,0.4,0.5,1,0.5,2v3.9c0,0.6,0.1,1.3,0.3,1.9h-3.1
		c-0.1-0.3-0.2-0.6-0.2-0.9c-0.1-0.3-0.1-0.7-0.1-1v-3.9c0-0.4-0.1-0.8-0.2-1c-0.2-0.2-0.4-0.3-0.7-0.3h0v7.2L92.1,224.6L92.1,224.6
		L92.1,224.6z M99.7,224.6l2.5-15.5h4l1.8,15.5h-3.2l-0.3-4.1H103l-0.4,4.1L99.7,224.6L99.7,224.6z M103.2,218.2h1.1l-0.3-4.7
		c0-0.5,0-1,0-1.4c0-0.2,0-0.5,0-0.7h-0.1c0,0.6-0.1,1.1-0.1,1.4c0,0.4,0,0.6-0.1,0.7L103.2,218.2L103.2,218.2z M112.8,215.5v-3.6
		c0-0.4-0.1-0.6-0.2-0.7c-0.1-0.1-0.4-0.2-0.7-0.2h-0.1v5.3h0.2c0.3,0,0.5-0.1,0.7-0.2C112.7,216.1,112.8,215.9,112.8,215.5
		L112.8,215.5z M108.6,224.6v-15.5h3.6c1.2,0,2.2,0.2,2.7,0.7c0.6,0.5,0.9,1.2,0.9,2.1v3.3c0,1.2-0.3,2.1-0.9,2.6s-1.5,0.8-2.9,0.8
		h-0.4v6L108.6,224.6L108.6,224.6L108.6,224.6z M116.6,224.6v-15.5h3.1v5.8h1v-5.8h3.1v15.5h-3.1v-7.5h-1v7.5L116.6,224.6
		L116.6,224.6z M124.7,224.6v-15.5h3.1v15.5L124.7,224.6L124.7,224.6z M128.8,212.8c0-1.5,0.3-2.5,0.8-3.1c0.6-0.6,1.5-0.9,2.8-0.9
		c1.3,0,2.2,0.3,2.8,0.9c0.6,0.6,0.8,1.6,0.8,3.1v1.7h-3.1v-2.8c0-0.3,0-0.5-0.1-0.6c-0.1-0.1-0.2-0.2-0.4-0.2
		c-0.2,0-0.3,0.1-0.4,0.2c-0.1,0.1-0.1,0.3-0.1,0.6v10.1c0,0.3,0,0.5,0.1,0.6c0.1,0.1,0.2,0.2,0.4,0.2c0.2,0,0.3-0.1,0.4-0.2
		c0.1-0.1,0.1-0.3,0.1-0.6v-3.1h3.1v2.2c0,1.4-0.3,2.5-0.8,3.1c-0.6,0.6-1.5,0.9-2.8,0.9c-1.3,0-2.2-0.3-2.8-0.9
		c-0.6-0.6-0.8-1.6-0.8-3.1L128.8,212.8L128.8,212.8L128.8,212.8z M136.7,211.9c0-1,0.3-1.8,1-2.3c0.6-0.5,1.5-0.8,2.7-0.8
		c1.1,0,2,0.3,2.7,0.8c0.6,0.5,0.9,1.3,0.9,2.4v2.5h-3.1v-2.8c0-0.3,0-0.5-0.1-0.6c-0.1-0.1-0.2-0.2-0.4-0.2c-0.2,0-0.3,0.1-0.4,0.2
		c-0.1,0.1-0.1,0.3-0.1,0.6v1.4c0,0.2,0,0.4,0.1,0.6c0.1,0.2,0.2,0.3,0.3,0.5l3,3.3c0.3,0.3,0.5,0.6,0.6,1c0.1,0.3,0.2,0.9,0.2,1.6
		v1.8c0,1-0.3,1.8-0.9,2.3c-0.6,0.5-1.5,0.8-2.7,0.8c-1.2,0-2.1-0.3-2.7-0.8c-0.6-0.6-0.9-1.4-0.9-2.5v-2.9h3.1v3.1
		c0,0.3,0,0.5,0.1,0.6c0.1,0.1,0.2,0.2,0.4,0.2c0.2,0,0.3-0.1,0.4-0.2c0.1-0.1,0.1-0.3,0.1-0.6v-1.6c0-0.2,0-0.4-0.1-0.6
		c-0.1-0.2-0.2-0.4-0.4-0.6l-2.8-3.2c-0.3-0.3-0.5-0.6-0.6-1c-0.1-0.3-0.2-0.8-0.2-1.3L136.7,211.9L136.7,211.9L136.7,211.9z
		 M148.8,224.6v-15.5h3.1v15.5L148.8,224.6L148.8,224.6z M152.9,224.6v-15.5h4.3l1.1,6.6c0.1,0.6,0.2,1.3,0.3,2
		c0.1,0.7,0.1,1.6,0.2,2.5h0.1c0-1.1-0.1-2-0.1-2.9c0-0.6,0-1.2,0-1.8l0-6.4h2.4v15.5h-3.6l-1.6-8.4c-0.1-0.5-0.2-1-0.2-1.5
		c-0.1-0.7-0.2-1.4-0.3-2.2h-0.1c0,0.6,0.1,1.2,0.1,1.7c0,0.5,0,0.9,0,1.2v9.2L152.9,224.6L152.9,224.6L152.9,224.6z M162,212.8
		c0-1.5,0.3-2.5,0.8-3.1c0.6-0.6,1.5-0.9,2.8-0.9c1.3,0,2.2,0.3,2.8,0.9c0.6,0.6,0.8,1.6,0.8,3.1v1.7h-3.1v-2.8c0-0.3,0-0.5-0.1-0.6
		c-0.1-0.1-0.2-0.2-0.4-0.2c-0.2,0-0.3,0.1-0.4,0.2c-0.1,0.1-0.1,0.3-0.1,0.6v10.1c0,0.3,0,0.5,0.1,0.6c0.1,0.1,0.2,0.2,0.4,0.2
		c0.2,0,0.3-0.1,0.4-0.2c0.1-0.1,0.1-0.3,0.1-0.6v-3.1h3.1v2.2c0,1.4-0.3,2.5-0.8,3.1c-0.6,0.6-1.5,0.9-2.8,0.9
		c-1.3,0-2.2-0.3-2.8-0.9c-0.6-0.6-0.8-1.6-0.8-3.1L162,212.8L162,212.8L162,212.8z M169.9,212.8c0-1.4,0.3-2.5,0.8-3.1
		c0.6-0.6,1.5-0.9,2.8-0.9s2.2,0.3,2.8,0.9c0.6,0.6,0.8,1.6,0.8,3.1v8.2c0,1.5-0.3,2.5-0.8,3.1c-0.6,0.6-1.5,0.9-2.8,0.9
		s-2.2-0.3-2.8-0.9c-0.6-0.6-0.8-1.6-0.8-3.1V212.8z M173,211.7v10.1c0,0.3,0,0.5,0.1,0.6c0.1,0.1,0.2,0.2,0.4,0.2
		c0.2,0,0.3-0.1,0.4-0.2c0.1-0.1,0.1-0.3,0.1-0.6v-10.1c0-0.3,0-0.5-0.1-0.6c-0.1-0.1-0.2-0.2-0.4-0.2c-0.2,0-0.3,0.1-0.4,0.2
		C173.1,211.3,173,211.5,173,211.7z M182.3,214.4v-2.5c0-0.4-0.1-0.6-0.2-0.7c-0.1-0.1-0.4-0.2-0.8-0.2v4.2h0.2
		c0.3,0,0.6-0.1,0.7-0.2S182.3,214.7,182.3,214.4L182.3,214.4z M178.1,224.6v-15.5h3.6c1.3,0,2.2,0.2,2.7,0.7
		c0.6,0.4,0.9,1.2,0.9,2.1v1.6c0,0.8-0.2,1.4-0.6,1.9c-0.4,0.4-1,0.7-1.8,0.7v0.1c0.9,0.1,1.5,0.3,1.9,0.7c0.4,0.4,0.5,1,0.5,2v3.9
		c0,0.6,0.1,1.3,0.3,1.9h-3.1c-0.1-0.3-0.2-0.6-0.2-0.9c-0.1-0.3-0.1-0.7-0.1-1v-3.9c0-0.4-0.1-0.8-0.2-1c-0.2-0.2-0.4-0.3-0.7-0.3
		h0v7.2L178.1,224.6L178.1,224.6L178.1,224.6z M190.3,215.5v-3.6c0-0.4-0.1-0.6-0.2-0.7c-0.1-0.1-0.4-0.2-0.7-0.2h-0.1v5.3h0.2
		c0.3,0,0.5-0.1,0.7-0.2C190.2,216.1,190.3,215.9,190.3,215.5L190.3,215.5z M186.2,224.6v-15.5h3.6c1.2,0,2.2,0.2,2.7,0.7
		c0.6,0.5,0.9,1.2,0.9,2.1v3.3c0,1.2-0.3,2.1-0.9,2.6c-0.6,0.5-1.5,0.8-2.9,0.8h-0.4v6L186.2,224.6L186.2,224.6z M194,212.8
		c0-1.4,0.3-2.5,0.8-3.1c0.6-0.6,1.5-0.9,2.8-0.9c1.3,0,2.2,0.3,2.8,0.9c0.6,0.6,0.8,1.6,0.8,3.1v8.2c0,1.5-0.3,2.5-0.8,3.1
		c-0.6,0.6-1.5,0.9-2.8,0.9c-1.3,0-2.2-0.3-2.8-0.9c-0.6-0.6-0.8-1.6-0.8-3.1V212.8z M197.1,211.7v10.1c0,0.3,0,0.5,0.1,0.6
		c0.1,0.1,0.2,0.2,0.4,0.2c0.2,0,0.3-0.1,0.4-0.2c0.1-0.1,0.1-0.3,0.1-0.6v-10.1c0-0.3,0-0.5-0.1-0.6c-0.1-0.1-0.2-0.2-0.4-0.2
		c-0.2,0-0.3,0.1-0.4,0.2C197.2,211.3,197.1,211.5,197.1,211.7z M206.3,214.4v-2.5c0-0.4-0.1-0.6-0.2-0.7c-0.1-0.1-0.4-0.2-0.8-0.2
		v4.2h0.2c0.3,0,0.6-0.1,0.7-0.2S206.3,214.7,206.3,214.4L206.3,214.4z M202.2,224.6v-15.5h3.6c1.3,0,2.2,0.2,2.7,0.7
		c0.6,0.4,0.9,1.2,0.9,2.1v1.6c0,0.8-0.2,1.4-0.6,1.9c-0.4,0.4-1,0.7-1.8,0.7v0.1c0.9,0.1,1.5,0.3,1.9,0.7c0.4,0.4,0.5,1,0.5,2v3.9
		c0,0.6,0.1,1.3,0.3,1.9h-3.1c-0.1-0.3-0.2-0.6-0.2-0.9c-0.1-0.3-0.1-0.7-0.1-1v-3.9c0-0.4-0.1-0.8-0.2-1c-0.2-0.2-0.4-0.3-0.7-0.3
		h0v7.2L202.2,224.6L202.2,224.6L202.2,224.6z M209.9,224.6l2.5-15.5h4l1.8,15.5H215l-0.3-4.1h-1.5l-0.4,4.1L209.9,224.6
		L209.9,224.6z M213.4,218.2h1.1l-0.3-4.7c0-0.5,0-1,0-1.4c0-0.2,0-0.5,0-0.7H214c0,0.6-0.1,1.1-0.1,1.4c0,0.4,0,0.6-0.1,0.7
		L213.4,218.2L213.4,218.2z M219.8,224.6v-13.3h-2v-2.2h7v2.2h-2v13.3H219.8z M225.4,224.6v-15.5h3.1v15.5L225.4,224.6L225.4,224.6z
		 M229.4,212.8c0-1.4,0.3-2.5,0.8-3.1c0.6-0.6,1.5-0.9,2.8-0.9c1.3,0,2.2,0.3,2.8,0.9c0.6,0.6,0.8,1.6,0.8,3.1v8.2
		c0,1.5-0.3,2.5-0.8,3.1c-0.6,0.6-1.5,0.9-2.8,0.9c-1.3,0-2.2-0.3-2.8-0.9c-0.6-0.6-0.8-1.6-0.8-3.1V212.8z M232.5,211.7v10.1
		c0,0.3,0,0.5,0.1,0.6c0.1,0.1,0.2,0.2,0.4,0.2c0.2,0,0.3-0.1,0.4-0.2c0.1-0.1,0.1-0.3,0.1-0.6v-10.1c0-0.3,0-0.5-0.1-0.6
		c-0.1-0.1-0.2-0.2-0.4-0.2c-0.2,0-0.3,0.1-0.4,0.2C232.6,211.3,232.5,211.5,232.5,211.7z M237.6,224.6v-15.5h4.3l1.1,6.6
		c0.1,0.6,0.2,1.3,0.3,2c0.1,0.7,0.1,1.6,0.2,2.5h0.1c0-1.1-0.1-2-0.1-2.9c0-0.6,0-1.2,0-1.8l0-6.4h2.4v15.5h-3.6l-1.6-8.4
		c-0.1-0.5-0.2-1-0.2-1.5c-0.1-0.7-0.2-1.4-0.3-2.2h-0.1c0,0.6,0.1,1.2,0.1,1.7c0,0.5,0,0.9,0,1.2v9.2L237.6,224.6L237.6,224.6
		L237.6,224.6z"/>
</g>
</svg>
