<svg id="Layer_1" data-name="Layer 1" xmlns="http://www.w3.org/2000/svg" viewBox="0 0 248.9 86"><defs><style>.cls-1{fill:#2d4f9e;}</style></defs><title>epson-ready</title><path d="M15.55,167H26.82v2.37H18.29v4.09h7.89v2.24H18.29v4.58H27v2.37H15.55Zm13.6,0h3.26L36,172.51,39.67,167h3.07l-5.18,7.54,5.55,8.11H39.78l-3.9-6-4,6H28.77l5.55-8.11L29.15,167Zm26.41,5a3.76,3.76,0,0,0-3.9-3.12c-3.36,0-4.76,3-4.76,6s1.4,6,4.76,6c2.43,0,3.77-1.83,4-4.1h2.67A6.41,6.41,0,0,1,51.66,183c-4.7,0-7.5-3.73-7.5-8.2s2.8-8.19,7.5-8.19c3.53,0,6.31,2,6.64,5.35Zm6.7-5H73.52v2.37H65v4.09h7.89v2.24H65v4.58h8.68v2.37H62.26Zm15.57,0H89.09v2.37H80.57v4.09h7.89v2.24H80.57v4.58h8.68v2.37H77.83Zm15.57,0h6.49c4.82,0,6.9,3.51,6.9,7.82s-2.08,7.83-6.9,7.83H93.4Zm2.74,13.41h2.7c4.29,0,5.21-2.45,5.21-5.59s-.92-5.58-5.21-5.58h-2.7Zm24.56-3.9L114.83,167H118l4.14,7,4.08-7h3.06l-5.85,9.51v6.14H120.7v-6.14Zm24.16-1.69c0,4.47-2.8,8.2-7.49,8.2s-7.5-3.73-7.5-8.2,2.81-8.19,7.5-8.19S144.86,170.34,144.86,174.8Zm-12.25,0c0,3,1.4,6,4.76,6s4.75-3,4.75-6-1.4-6-4.75-6S132.61,171.8,132.61,174.8ZM148.17,167h2.75v9.12c0,2.1.13,4.54,3.67,4.54s3.68-2.44,3.68-4.54V167H161v10c0,4-2.56,6-6.42,6s-6.42-2-6.42-6Zm17.1,0h7.48c3.42,0,5.17,1.58,5.17,4.23a3.79,3.79,0,0,1-2.58,3.94v0c.94.13,2.32.83,2.32,3.31,0,1.82.26,3.48.86,4.12h-2.94a4.34,4.34,0,0,1-.42-2.3c0-2.87-.59-4.14-3.11-4.14h-4v6.44h-2.75ZM168,174.1h4.5c1.73,0,2.67-.85,2.67-2.49,0-2-1.3-2.39-2.72-2.39H168v4.88ZM187.79,167h2.85l3.92,12.39h.05l4-12.39h2.78l-5.35,15.65h-3L187.79,167Zm16.44,0H207v15.65h-2.74Zm8.9,10.43c0,2.41,1.77,3.36,4,3.36,2.42,0,3.32-1.19,3.32-2.37a1.87,1.87,0,0,0-1.3-1.93c-1.1-.41-2.53-.71-4.67-1.3-2.67-.72-3.46-2.34-3.46-4,0-3.13,2.89-4.61,5.72-4.61,3.27,0,6,1.74,6,5H220c-.13-2-1.49-2.77-3.38-2.77-1.27,0-2.87.46-2.87,2,0,1.1.74,1.71,1.86,2,.24.06,3.71,1,4.52,1.2a4.15,4.15,0,0,1,3.05,4c0,3.5-3.12,4.9-6.23,4.9-3.57,0-6.47-1.71-6.53-5.59ZM226.87,167h2.74v15.65h-2.74V167Zm21.31,7.82c0,4.47-2.81,8.2-7.5,8.2s-7.49-3.73-7.49-8.2,2.8-8.2,7.49-8.2S248.18,170.34,248.18,174.8Zm-12.25,0c0,3,1.4,6,4.75,6s4.76-3,4.76-6-1.4-6-4.76-6S235.93,171.8,235.93,174.8ZM251.76,167h2.89l7.15,11.53h0V167h2.61v15.65h-2.89l-7.13-11.51h-.06v11.51h-2.61V167Z" transform="translate(-15.55 -97)"/><path class="cls-1" d="M187.85,97c-16.87,0-26.61,12.64-26.61,30s9.74,30,26.61,30,26.6-12.64,26.6-30S204.71,97,187.85,97Zm0,49.85C177.13,146.85,173,137,173,127s4.13-19.88,14.85-19.88,14.84,9.86,14.84,19.88S198.56,146.85,187.85,146.85ZM15.55,98.68H57.83v10.08H27.31v12.55H55.77v9.83H27.31v14H57.83v10.09H15.55Zm47.31,56.57H74.62v-17H85.28c14.4,0,24.07-7.08,24.07-19.8s-9.67-19.8-24.07-19.8H62.87v56.57ZM85.28,128.2H74.62V108.76H85.28c7.39,0,12.31,3.21,12.31,9.72s-4.92,9.72-12.31,9.72ZM231,98.68H218.9v56.57h11.52V132.33c0-6.26-.23-11.83-.44-16.75,1.36,2.83,5.48,11.34,7.4,14.54l15,25.13h12.07V98.68H252.93V121c0,6.27.23,12.41.44,17.33C252,135.51,247.89,127,246,123.81ZM122.7,136.53c0,7.6,6.33,10.56,13,10.56,4.4,0,11.53-1.28,11.53-7.12,0-6.16-8.72-7.32-17.12-9.57-8.82-2.32-17.3-5.64-17.3-16.12,0-11.68,11-17.28,21.37-17.28,11.92,0,22.88,5.2,22.88,18.41H145.35c-.4-6.89-5.68-8.65-11.68-8.65-4,0-9,1.68-9,6.49,0,4.4,2.87,5.08,17.2,8.76,4.16,1,17.22,3.56,17.22,16.52,0,10.48-8.24,18.32-23.77,18.32-12.64,0-24.49-6.24-24.33-20.32Z" transform="translate(-15.55 -97)"/></svg>