<?xml version="1.0" encoding="utf-8"?>
<!-- Generator: Adobe Illustrator 23.0.5, SVG Export Plug-In . SVG Version: 6.00 Build 0)  -->
<svg version="1.1" id="Layer_1" xmlns="http://www.w3.org/2000/svg" xmlns:xlink="http://www.w3.org/1999/xlink" x="0px" y="0px"
	 viewBox="0 0 280 280" style="enable-background:new 0 0 280 280;" xml:space="preserve">
<style type="text/css">
	.st0{fill:#1A1A1A;}
</style>
<g>
	
		<image style="overflow:visible;" width="190" height="201" xlink:href="C6BD95E.png"  transform="matrix(0.3795 0 0 0.3795 6.8302 103.6947)">
	</image>
	<g>
		<path class="st0" d="M233.5,173.1c1.9-9.7,3.7-19.2,5.6-28.6c1.2-5.9,1.2-5.9,7.3-5.9c5.1,0,10.2,0,15.2,0
			c6.9,0.1,10.3,2.6,11.2,7.9c0.8,5.4-2.2,10-8.1,12.1c-0.4,0.2-0.8,0.4-1.7,0.8c2.2,4.6,4.3,9.1,6.5,13.7c-8.1,1-9.1,0.4-11.9-6.4
			c-1.6-3.9-3.3-7.8-5-11.9c2.6-0.3,4.9-0.4,7.2-0.8c2.7-0.6,5.1-2.1,4.9-5.1c-0.1-3.1-2.6-4.4-5.4-4.7c-3.2-0.3-6.4-0.4-9.5-0.1
			c-1,0.1-2.3,1.8-2.5,3c-1.4,6.4-2.6,12.9-3.8,19.4C242.2,173.1,241.1,173.9,233.5,173.1z"/>
		<path class="st0" d="M158.2,173.4c2.2-11.2,4.2-21.9,6.4-32.6c0.2-0.9,1.7-2,2.6-2c5.7-0.2,11.3-0.2,17,0
			c6.5,0.3,10.3,3.8,10.3,10.2c0,4.8-0.9,9.9-2.7,14.3c-2.7,6.9-8.2,10.6-16.1,10.1C170,173.2,164.2,173.4,158.2,173.4z M167.7,168
			c2.2,0,3.8,0,5.4,0c7.6,0,10.2-1.9,12.2-9.3c0.6-2.4,1-4.9,1-7.3c-0.2-6.3-7.8-10.3-13.2-7.1c-0.5,0.3-0.9,1.1-1,1.7
			C170.6,153,169.3,160.1,167.7,168z"/>
		<path class="st0" d="M158,139c0,3.6-1.7,5-5.1,4.9c-2.9-0.1-5.9-0.1-8.8,0c-5.6,0.3-9.5,3.7-10.4,9.2c3.7,0,7.3,0,10.9,0
			c3.7,0,7.3,0,11,0c-1,5.4-1,5.4-6.3,5.4c-4.8,0-9.7,0.1-14.5,0c-2.4-0.1-3.1,1-2.8,3.2c0.6,3.9,2.9,6.2,6.9,6.2
			c4.6,0.1,9.2,0,13.8,0c-1.1,5-1.6,5.5-6.5,5.5c-3.9,0-7.8,0-11.7,0c-7.2-0.1-10.7-3.2-11.6-10.2c-1.4-11.2,5.8-22.9,15.5-24
			C144.8,138.4,151.3,139,158,139z"/>
		<path class="st0" d="M222.1,138.7c2.7,11.7,5.3,23.1,8,34.7c-1.6,0-3,0-4.4,0c-3.1,0.1-4.8-1.3-5.4-4.4
			c-1.3-7.2-2.8-14.3-4.4-22.4c-1.1,1.8-1.8,2.7-2.4,3.8c-3.1,5.6-6.3,11.1-9.1,16.8c-2.5,5.2-6.2,7.5-12,6c0-0.1-0.2-0.4-0.1-0.5
			c5.7-10.2,11.5-20.3,17.3-30.4c1.4-2.5,3.7-3.5,6.5-3.5C218.1,138.7,220.1,138.7,222.1,138.7z"/>
		<path class="st0" d="M121.9,138.2c-0.6,4-2,5.6-5.3,5.6c-4.2,0-8.5,0.1-12.7,0.5c-4.8,0.5-7.9,3.9-8.3,8.8c7.6,0,15.3,0,22.9,0
			c-0.7,4.5-1.7,5.4-5.9,5.4c-5.2,0-10.4,0.1-15.6,0c-2.2-0.1-3.3,0.7-3.5,2.9c-0.2,1.7-0.7,3.5-1,5.2c-1.4,6.5-3,7.5-10.2,6.4
			c1.5-7.4,2.7-14.8,4.4-22.1c1.5-6.3,6-10.3,12.4-11.2C106.6,138.8,114.1,138.7,121.9,138.2z"/>
	</g>
</g>
</svg>
