<?xml version="1.0" encoding="utf-8"?>
<!-- Generator: Adobe Illustrator 23.0.5, SVG Export Plug-In . SVG Version: 6.00 Build 0)  -->
<svg version="1.1" id="Layer_1" xmlns="http://www.w3.org/2000/svg" xmlns:xlink="http://www.w3.org/1999/xlink" x="0px" y="0px"
	 viewBox="0 0 280 280" style="enable-background:new 0 0 280 280;" xml:space="preserve">
<style type="text/css">
	.st0{fill:#DF2718;}
</style>
<g>
	<path class="st0" d="M49.6,144.6V117H38.2L4,166.4h13.7l20.1-29.1v24.3L49.6,144.6z M252.9,128.4h11.4v38h-11.4V128.4z M88,128.4
		h11.4v38H88V128.4z M249.5,128.4h-13.7l-13.3,16.3v-16.3h-11.4v38h11.4v-20.7l13.3,20.7h13.7l-13.7-21.3L249.5,128.4z M83.4,166.4
		V117H72l-34.2,49.4h13.7l20.1-29.1v29.1H83.4z M160.9,142.5c0-8.2-6.6-14.8-14.8-14.8c-4.2,0-8.3,1.8-11.1,5c-2.6-3.2-6.5-5-10.6-5
		c-3.4,0-6.6,1.2-9.1,3.5v-2.7h-11.4v38h11.4v-22c0.1-3.1,2.7-5.7,5.8-5.6c3.1,0.1,5.5,2.5,5.6,5.6v22h11.4v-22
		c0-3.1,2.6-5.7,5.7-5.7c3.1,0,5.7,2.6,5.7,5.7v22h11.4L160.9,142.5z M195.1,166.4h11.4v-38h-11.4v3.2c-3.4-2.6-7.5-4-11.8-4
		c-10.7,0-19.4,8.7-19.4,19.4c0,10.7,8.7,19.4,19.4,19.4h8.7v-11h-8.4c-4.8,0.1-8.8-3.8-8.9-8.6c-0.1-4.8,3.8-8.8,8.6-8.9
		c0.1,0,0.2,0,0.3,0h1.1c5.7,0,10.3,4.6,10.3,10.3c0,0,0,0,0,0L195.1,166.4z M271.7,124c-2.4,0-4.4,1.9-4.5,4.3
		c0,2.4,1.9,4.4,4.3,4.5c0.1,0,0.1,0,0.2,0c2.4,0,4.3-2,4.3-4.5C276,126,274.1,124.1,271.7,124z M271.7,132.2
		c-2.1,0-3.8-1.6-3.9-3.7c0-2.1,1.6-3.8,3.7-3.9c0.1,0,0.1,0,0.2,0c2.1,0,3.8,1.8,3.7,3.9C275.4,130.5,273.8,132.2,271.7,132.2z"/>
	<path class="st0" d="M272.3,129c0.8,0,1.5-0.7,1.5-1.5s-0.7-1.5-1.5-1.5h-2.1v4.9h0.6v-4.4h1.5c0.5,0,1,0.4,1,0.9
		c0,0.5-0.4,1-0.9,1c0,0-0.1,0-0.1,0h-1.5l2.3,2.5h0.8l-1.8-1.9L272.3,129L272.3,129z"/>
</g>
</svg>
