<svg id="Layer_1" data-name="Layer 1" xmlns="http://www.w3.org/2000/svg" viewBox="0 0 267 54.02"><defs><style>.cls-1{fill:#383b92;fill-rule:evenodd;}</style></defs><title>mutoh-ready</title><path class="cls-1" d="M38.29,137.74l6-19a4.1,4.1,0,0,1,.82-1.43,4,4,0,0,1,2.93-1.31H68.71V168.5H53V133.24L42,168.5H34.81l-11-35.06V168.5H8V116.05H28.56a3.93,3.93,0,0,1,3.76,2.77l5.83,18.92Zm113.08-10.91V168.5h-15.9V126.9H119.84V169L85.1,169a25.4,25.4,0,0,1-4.63-.39,12.09,12.09,0,0,1-3.32-1.08,8.76,8.76,0,0,1-4-3.95,12.54,12.54,0,0,1-1.1-3.21,22.48,22.48,0,0,1-.39-4.33v-40H86.37v36.59a4.64,4.64,0,0,0,.75,2.41,6.46,6.46,0,0,0,2.06,2.1,9.2,9.2,0,0,0,3,1.19,12.74,12.74,0,0,0,2.87.12h10.11V116.05h62.34v8.64a21.86,21.86,0,0,1,11.22-8.52,22.49,22.49,0,0,1,7.14-1.17h11a22.59,22.59,0,0,1,8.45,1.65,22,22,0,0,1,7.12,4.68,21.46,21.46,0,0,1,4.71,6.93,21.1,21.1,0,0,1,1.64,8.14v10.7a21.13,21.13,0,0,1-1.64,8.14,21.46,21.46,0,0,1-4.71,6.93,22,22,0,0,1-7.12,4.68,22.43,22.43,0,0,1-8.45,1.65h-11a22.52,22.52,0,0,1-8.46-1.65,22.09,22.09,0,0,1-7.11-4.68,21.15,21.15,0,0,1-4.71-6.93,20.92,20.92,0,0,1-1.65-8.14V136.4a20.83,20.83,0,0,1,.59-4.92,28.08,28.08,0,0,1,1.73-4.65Zm28.42,22.86a6.8,6.8,0,0,0,1.44,2.17,6.49,6.49,0,0,0,4.64,1.95h10.95a6.47,6.47,0,0,0,4.64-1.95,6.75,6.75,0,0,0,1.44-2.17,7,7,0,0,0,.51-2.59V136.41a6.91,6.91,0,0,0-.51-2.59,6.71,6.71,0,0,0-3.57-3.63,6.54,6.54,0,0,0-2.51-.5H185.87a6.51,6.51,0,0,0-4.64,1.95,6.84,6.84,0,0,0-1.44,2.18,6.94,6.94,0,0,0-.5,2.59V147.1a7,7,0,0,0,.5,2.59ZM238,168.5V148h21.14V168.5H275V116.05H259.17v21.14H238V116.05H222.08V168.5Z" transform="translate(-8 -115)"/></svg>