<?xml version="1.0" encoding="utf-8"?>
<!-- Generator: Adobe Illustrator 23.0.5, SVG Export Plug-In . SVG Version: 6.00 Build 0)  -->
<svg version="1.1" id="Layer_1" xmlns="http://www.w3.org/2000/svg" xmlns:xlink="http://www.w3.org/1999/xlink" x="0px" y="0px"
	 viewBox="0 0 1000 1000" style="enable-background:new 0 0 1000 1000;" xml:space="preserve">
<g>
	<path d="M356.4,126.9l-3.3-9.3l21.9-7.7l3.3,9.3L356.4,126.9z"/>
	<path d="M408.2,126.5L398,75.1l35-7l1.9,9.7l-23.1,4.6l2.1,10.8l18.6-3.7l1.9,9.7l-18.6,3.7l2.3,11.3l23.1-4.6l2,9.8L408.2,126.5z"
		/>
	<path d="M448,118.9l8-20l-11.4-18.6l12.7-1.1l7.1,12.4l4.9-13.4l11.8-1l-7.7,20l11,18.6l-12.7,1.1l-7.1-11.7l-4.6,12.7L448,118.9z"
		/>
	<path d="M490.5,131.6l1.2-54.7l11.6,0.2l0,2.4c0.7-0.4,1.6-0.9,2.7-1.4c1.1-0.5,2.2-0.9,3.5-1.2c1.2-0.3,2.4-0.4,3.6-0.4
		c5.2,0.1,8.9,1.9,11.1,5.3c2.2,3.4,3.2,8.5,3.1,15.2c-0.1,4.7-0.7,8.6-1.9,11.6s-3,5.1-5.5,6.5c-2.5,1.4-5.8,2-9.9,1.9
		c-1.2,0-2.6-0.2-4-0.4c-1.4-0.3-2.5-0.5-3.4-0.6l-0.3,16L490.5,131.6z M508.1,107.1c1.8,0,3.3-0.4,4.3-1.2c1-0.8,1.8-2,2.3-3.6
		c0.5-1.6,0.7-3.6,0.8-6c0.1-3.8-0.4-6.5-1.4-8c-1-1.5-2.5-2.2-4.5-2.3c-0.7,0-1.4,0.1-2.2,0.2c-0.8,0.2-1.6,0.4-2.3,0.6
		c-0.7,0.2-1.3,0.5-1.9,0.7l-0.4,18.8c0.5,0.1,1.3,0.2,2.3,0.4C506.1,107,507.1,107.1,508.1,107.1z"/>
	<path d="M550.9,120.1c-4.3-0.6-7.7-1.8-10.1-3.5c-2.4-1.8-3.9-4.2-4.6-7.2c-0.7-3-0.8-6.8-0.2-11.2c0.6-4.6,1.8-8.4,3.6-11.2
		c1.8-2.8,4.1-4.8,6.9-6c2.8-1.1,6.3-1.5,10.3-0.9c5.9,0.8,10.2,2.8,12.7,6.1c2.6,3.2,3.5,7.9,2.7,14.1l-1.4,5.9l-23.5-3.1
		c-0.3,2.4,0,4.3,0.8,5.7c0.8,1.3,2.5,2.2,4.9,2.5c1.6,0.2,3.4,0.4,5.3,0.6c2,0.2,3.9,0.4,5.9,0.5c1.9,0.2,3.6,0.3,5,0.4l-0.8,8
		c-1.4,0.1-3,0.1-5.1,0.1c-2,0-4.1,0-6.3-0.1C554.9,120.5,552.8,120.4,550.9,120.1z M548.1,95.9l12.5,1.7c0.4-3.1,0.2-5.2-0.6-6.6
		c-0.8-1.3-2.3-2.1-4.4-2.4c-2.1-0.3-3.8,0.1-5,1.2C549.4,90.9,548.6,92.9,548.1,95.9z"/>
	<path d="M576.9,123.4l8.7-37.7l11.5,2.6l-1,4.3c0.9-0.5,2.1-0.9,3.5-1.4c1.4-0.4,2.8-0.8,4.3-1.1c1.5-0.3,2.9-0.4,4.2-0.2l-2.5,11
		c-1.2-0.1-2.6-0.1-4,0c-1.4,0.1-2.8,0.3-4.2,0.5c-1.3,0.2-2.5,0.5-3.4,0.8l-5.5,23.9L576.9,123.4z"/>
	<path d="M605.8,130.5l11.2-37.1l11.3,3.4L617.1,134L605.8,130.5z M618.6,88.3l2.7-9l11.3,3.4l-2.7,9L618.6,88.3z"/>
	<path d="M641.1,143.6c-4.1-1.6-7-3.6-8.9-5.9c-1.9-2.3-2.8-5-2.7-8.1c0.1-3.1,0.9-6.8,2.6-10.9c1.7-4.3,3.8-7.7,6.2-10
		c2.4-2.3,5.1-3.7,8.1-4.1c3-0.4,6.4,0.1,10.2,1.6c5.5,2.2,9.2,5.2,10.9,9c1.7,3.8,1.4,8.6-0.8,14.3l-2.8,5.4l-22-8.8
		c-0.9,2.3-1,4.2-0.6,5.7c0.5,1.5,1.9,2.7,4.2,3.6c1.5,0.6,3.2,1.2,5,1.9c1.9,0.7,3.7,1.3,5.6,1.9c1.8,0.6,3.4,1.1,4.8,1.6l-2.7,7.5
		c-1.3-0.3-3-0.6-5-1.1c-2-0.5-4-1-6.1-1.6C644.9,144.9,642.9,144.3,641.1,143.6z M644.3,119.4l11.7,4.7c1.1-2.9,1.5-5,1-6.5
		c-0.5-1.5-1.7-2.6-3.7-3.4s-3.7-0.8-5.2,0C646.7,114.9,645.4,116.7,644.3,119.4z"/>
	<path d="M665.5,152.7l18.3-34.1l10.3,5.5l-1.1,2.1c1-0.1,2.1,0,3.3,0.1c1.2,0.1,2.5,0.3,3.7,0.6c1.3,0.3,2.4,0.7,3.4,1.2
		c3.2,1.7,5.4,3.6,6.6,5.7c1.2,2.1,1.5,4.6,0.9,7.5c-0.6,3-2.1,6.5-4.3,10.7l-9.4,17.6l-10.4-5.6l9.1-17c1.1-2.1,1.9-3.9,2.4-5.4
		c0.4-1.5,0.5-2.7,0.1-3.6c-0.4-1-1.2-1.8-2.4-2.4c-0.7-0.4-1.5-0.7-2.3-1c-0.8-0.3-1.7-0.5-2.5-0.6c-0.8-0.1-1.5-0.2-2.1-0.2
		l-13.1,24.4L665.5,152.7z"/>
	<path d="M717.6,184.5c-3.8-2.6-6.3-5.1-7.7-7.7c-1.4-2.6-1.6-5.4-0.8-8.5c0.9-3.1,2.7-6.7,5.4-10.7c2.8-4.1,5.5-7,8.1-8.8
		c2.6-1.7,5.3-2.4,8.2-2c2.8,0.4,6,1.8,9.5,4.2c1,0.7,2,1.5,3.2,2.4c1.1,1,2.3,2,3.3,3c1.1,1,2,2,2.8,2.8l-5.6,7.6
		c-0.8-0.7-1.7-1.4-2.7-2.2c-1-0.8-2-1.6-2.9-2.3c-0.9-0.7-1.7-1.3-2.3-1.7c-1.6-1.1-3.1-1.7-4.3-1.8c-1.3-0.1-2.5,0.3-3.7,1.2
		c-1.2,0.9-2.4,2.3-3.8,4.3c-1.4,2-2.3,3.8-2.8,5.3c-0.5,1.5-0.5,2.8,0.1,4c0.6,1.2,1.7,2.3,3.4,3.5c0.6,0.4,1.4,0.9,2.5,1.5
		c1,0.6,2.1,1.2,3.3,1.9c1.1,0.7,2.1,1.2,3,1.8l-5,7.9c-1-0.4-2.2-0.9-3.5-1.5c-1.3-0.6-2.7-1.3-4.1-2
		C719.8,185.9,718.6,185.2,717.6,184.5z"/>
	<path d="M746.5,206.5c-3.3-2.8-5.5-5.6-6.6-8.4c-1.1-2.8-1.1-5.6,0-8.6c1-2.9,3-6.1,5.9-9.5c3-3.6,6-6.1,9-7.6c3-1.5,6-1.9,9-1.4
		c3,0.6,6.1,2.1,9.2,4.8c4.6,3.8,7.1,7.8,7.5,12c0.4,4.1-1.3,8.6-5.3,13.3l-4.4,4.3l-18.1-15.3c-1.5,1.9-2.3,3.7-2.3,5.2
		c0,1.6,0.9,3.1,2.8,4.7c1.2,1,2.6,2.1,4.2,3.4c1.6,1.2,3.1,2.4,4.7,3.6c1.6,1.2,2.9,2.2,4,3l-5,6.3c-1.2-0.7-2.6-1.5-4.3-2.6
		c-1.7-1.1-3.5-2.2-5.2-3.5C749.6,209,748,207.8,746.5,206.5z M757.1,184.6l9.7,8.1c2-2.4,3-4.3,3-5.9c0-1.6-0.8-3-2.4-4.4
		s-3.3-1.9-4.9-1.7C760.9,181.1,759.1,182.4,757.1,184.6z"/>
	<path d="M775.2,233.2c-1.3-1.4-2.4-2.9-3.1-4.4c-0.7-1.5-1.1-3-1.2-4.5c-0.1-1.5,0.2-3.1,0.8-4.7c0.6-1.6,1.6-3.4,2.9-5.2
		c1.3-1.8,3-3.7,5.1-5.7c3.2-3,6.2-5.1,9.2-6.4c3-1.3,5.9-1.6,8.7-0.9c2.8,0.7,5.6,2.5,8.4,5.4c0.8,0.8,1.6,1.8,2.6,3.1
		c0.9,1.2,1.7,2.2,2.2,3l11.1-10.5l8.1,8.5l-39.3,37.3l-8-8.4l1.5-1.5c-0.8-0.2-1.7-0.6-2.8-1.1c-1.1-0.5-2.2-1-3.3-1.7
		C776.9,234.8,776,234.1,775.2,233.2z M784.5,228.8c0.5,0.6,1.1,1.1,1.8,1.5c0.7,0.5,1.4,0.9,2,1.3c0.7,0.4,1.2,0.7,1.6,0.9
		l13.8-13.1c-0.2-0.4-0.5-0.8-0.9-1.4c-0.4-0.5-0.8-1.1-1.3-1.6c-0.5-0.6-0.9-1-1.3-1.4c-1.2-1.3-2.5-2-3.8-2.1
		c-1.3-0.1-2.7,0.2-4.1,1c-1.4,0.8-2.9,2-4.6,3.5c-1.4,1.3-2.5,2.6-3.3,3.6c-0.8,1.1-1.3,2.1-1.5,3c-0.2,0.9-0.2,1.8,0,2.6
		C783.4,227.4,783.9,228.2,784.5,228.8z"/>
	<path d="M820.9,261.7l8.1-5.7l13.3,19l-8.1,5.7L820.9,261.7z"/>
	<path d="M843.8,330.5c-0.9-1.9-1.8-4-2.7-6.2c-0.8-2.3-1.6-4.5-2.3-6.6c-0.7-2.1-1.2-4-1.6-5.5l8.8-3.6c0.5,1.5,1.2,3.3,1.9,5.3
		c0.8,2,1.5,4.1,2.3,6.1c0.8,2,1.5,3.7,2.3,5.2c1.2,2.3,2.4,3.8,3.8,4.5c1.4,0.6,3,0.5,4.9-0.4c1-0.5,1.7-1.1,2.1-1.9
		c0.4-0.7,0.5-1.8,0.3-3.1c-0.2-1.3-0.6-3.1-1.3-5.4c-1.2-4.2-1.9-7.6-2-10.5c-0.1-2.8,0.5-5.2,1.9-7.1c1.4-1.9,3.6-3.7,6.7-5.2
		c3.8-1.9,7.1-2.7,9.8-2.3s5.2,1.5,7.4,3.6c2.1,2.1,4,4.9,5.8,8.3c0.8,1.6,1.6,3.5,2.4,5.6c0.8,2.1,1.6,4.2,2.3,6.2
		c0.7,2,1.3,3.8,1.7,5.4l-8.9,3.8c-0.5-1.5-1.1-3.2-1.9-5.1c-0.8-1.9-1.5-3.8-2.3-5.7c-0.8-1.9-1.5-3.5-2.2-4.8
		c-1.2-2.3-2.4-3.9-3.6-4.6c-1.2-0.7-2.6-0.7-4.1,0c-1.1,0.6-1.9,1.3-2.3,2c-0.4,0.8-0.5,1.9-0.3,3.3c0.2,1.4,0.5,3.2,1.1,5.6
		c0.8,3.2,1.3,5.9,1.6,8.2c0.3,2.3,0.2,4.3-0.2,6c-0.4,1.7-1.2,3.2-2.5,4.5c-1.3,1.3-3.1,2.5-5.5,3.7c-3.7,1.8-7,2.6-9.9,2.4
		c-2.9-0.2-5.5-1.3-7.7-3.3C847.6,336.9,845.6,334.1,843.8,330.5z"/>
	<path d="M859.2,366c-1.1-3.1-1.3-5.8-0.6-8.1c0.7-2.3,2.3-4.2,4.8-5.9c2.4-1.7,5.7-3.3,9.8-4.7l18.9-6.8l4,11.1l-18.4,6.6
		c-2.3,0.8-4.1,1.6-5.4,2.3c-1.3,0.7-2,1.6-2.3,2.5s-0.2,2.1,0.3,3.4c0.5,1.3,1,2.4,1.8,3.5c0.7,1,1.4,1.8,2,2.4l26.2-9.4l4,11.1
		L867.7,387l-3.9-11l2.1-0.8c-1.5-1.3-2.7-2.7-3.9-4.1C860.9,369.8,859.9,368.1,859.2,366z"/>
	<path d="M872.7,410.3c-0.4-1.8-0.8-3.8-1.1-5.8c-0.3-2-0.5-3.8-0.6-5.6s-0.2-3.1-0.2-4.3l8.3-1.6c0.2,1.3,0.3,2.8,0.5,4.5
		c0.2,1.7,0.4,3.4,0.6,5c0.2,1.6,0.5,2.9,0.7,3.9c0.3,1.3,0.7,2.4,1.1,3.2c0.4,0.8,0.9,1.4,1.5,1.7c0.6,0.3,1.4,0.3,2.2,0.1
		c0.6-0.2,1.1-0.5,1.4-1c0.3-0.5,0.5-1.4,0.5-2.5c0-1.1-0.1-2.8-0.3-5c-0.3-2.9-0.2-5.3,0.1-7.3c0.3-2,1.2-3.6,2.5-4.8
		c1.3-1.2,3.3-2.1,5.8-2.7c3.2-0.8,5.9-0.7,8.1,0.2c2.1,0.9,3.8,2.5,5.1,4.6c1.3,2.1,2.2,4.6,2.9,7.3c0.5,1.9,0.8,3.8,1.1,5.8
		c0.3,2,0.5,3.8,0.6,5.5c0.1,1.7,0.2,3.1,0.2,4.3l-8.6,1.7c-0.1-1.3-0.3-2.8-0.5-4.5c-0.2-1.7-0.5-3.4-0.8-5c-0.3-1.6-0.6-3-0.8-4.1
		c-0.3-1-0.6-1.9-0.9-2.7c-0.4-0.7-0.8-1.2-1.3-1.5c-0.5-0.3-1.2-0.4-2-0.2c-0.6,0.1-1,0.4-1.3,0.9c-0.3,0.4-0.4,1.2-0.5,2.3
		c0,1.1,0.1,2.7,0.3,4.8c0.3,3.1,0.3,5.7-0.1,7.8c-0.4,2-1.3,3.7-2.6,4.8c-1.3,1.2-3.3,2.1-5.9,2.7c-4.6,1.1-8.1,0.5-10.7-1.7
		C875.8,419,873.9,415.4,872.7,410.3z"/>
	<path d="M879.7,447.5c-0.4-2.8-0.4-5.2,0.2-7.1c0.5-1.9,1.7-3.4,3.6-4.5c1.9-1.1,4.7-1.9,8.3-2.4l15.8-2.3l-0.6-4.1l9.6-1.4
		l0.6,4.1l9.5-1.4l1.7,11.7l-9.5,1.4l1.3,9l-9.6,1.4l-1.3-9l-12.9,1.9c-1.7,0.3-3.1,0.5-4,0.9c-0.9,0.3-1.6,0.8-1.9,1.4
		c-0.3,0.6-0.4,1.5-0.2,2.6c0,0.3,0.1,0.8,0.3,1.4c0.1,0.7,0.3,1.3,0.4,2c0.1,0.7,0.2,1.2,0.3,1.5l-9.2,1.7
		c-0.4-1.2-0.9-2.7-1.4-4.4S879.9,448.7,879.7,447.5z"/>
	<path d="M882.4,473.8c-0.2-4.2,0.6-7.4,2.6-9.6c1.9-2.2,5-3.4,9.2-3.6c3-0.2,5.3,0.3,7,1.3c1.7,1,2.9,2.6,3.7,4.6
		c0.8,2.1,1.4,4.6,1.7,7.5l1.1,8.6l2-0.1c1.5-0.1,2.6-0.6,3.2-1.4c0.6-0.9,0.9-2.1,0.8-3.8c-0.1-1.5-0.2-3.2-0.4-5.1
		c-0.2-1.9-0.4-3.8-0.7-5.6s-0.5-3.4-0.7-4.7l8.1-0.8c0.4,1.4,0.9,3,1.3,4.9c0.4,1.9,0.8,3.9,1.2,6c0.3,2.1,0.6,4.1,0.7,5.9
		c0.2,3.3-0.1,6.2-0.7,8.6c-0.7,2.4-1.9,4.2-3.7,5.6c-1.8,1.3-4.4,2.1-7.7,2.3l-16.9,0.9c-0.6,0.2-1.1,0.6-1.4,1.2
		c-0.3,0.6-0.5,1.3-0.6,2l-7.9,0.2c-0.2-1.2-0.3-2.4-0.4-3.7c-0.1-1.3-0.1-2.3-0.1-3.1c0.1-1.3,0.3-2.5,0.8-3.5
		c0.4-1,0.9-1.7,1.4-2.2c-0.4-0.8-0.9-1.9-1.4-3.2c-0.5-1.3-1-2.7-1.4-4.3C882.7,477.1,882.5,475.5,882.4,473.8z M891.1,476.3
		c0,0.9,0.2,1.8,0.4,2.6c0.3,0.9,0.5,1.7,0.8,2.5c0.3,0.8,0.6,1.5,0.8,2l7.6-0.4l-1-6.7c-0.2-1.4-0.7-2.5-1.5-3.1
		c-0.8-0.6-1.8-0.9-3.2-0.8c-1.3,0.1-2.3,0.4-3,1.1C891.4,474.1,891,475.1,891.1,476.3z"/>
	<path d="M884.2,505.9l38.7,1.2l-0.4,11.8l-38.7-1.2L884.2,505.9z M928.3,507.2l9.4,0.3l-0.4,11.8l-9.4-0.3L928.3,507.2z"/>
	<path d="M883.6,527.2l38.5,4.5l-1.3,11.6l-2.4-0.3c0.4,0.9,0.8,1.9,1.2,3.1c0.4,1.2,0.6,2.4,0.8,3.7c0.2,1.3,0.2,2.5,0.1,3.6
		c-0.4,3.6-1.4,6.4-2.9,8.2c-1.5,1.9-3.7,3.1-6.7,3.6c-3,0.5-6.8,0.5-11.6-0.1l-19.8-2.3l1.4-11.7l19.1,2.2c2.4,0.3,4.4,0.4,5.9,0.2
		c1.5-0.1,2.6-0.5,3.4-1.2c0.8-0.7,1.2-1.7,1.4-3.2c0.1-0.8,0.1-1.7,0.1-2.6c-0.1-0.9-0.2-1.7-0.3-2.5c-0.2-0.8-0.3-1.5-0.5-2
		l-27.5-3.2L883.6,527.2z"/>
	<path d="M874.6,581.7c1-4.1,2.7-6.9,5.1-8.5c2.5-1.6,5.8-1.9,9.9-0.9c2.9,0.7,5,1.7,6.3,3.2c1.3,1.4,2.1,3.3,2.3,5.5
		c0.2,2.2,0.1,4.8-0.5,7.7l-1.3,8.6l1.9,0.5c1.5,0.3,2.7,0.2,3.5-0.5c0.8-0.7,1.4-1.8,1.8-3.4c0.3-1.5,0.7-3.1,1-5
		c0.3-1.9,0.6-3.7,0.9-5.6c0.3-1.8,0.5-3.4,0.6-4.8l8,1.5c0,1.4,0,3.1-0.1,5.1c-0.1,2-0.3,4-0.5,6.1c-0.3,2.1-0.6,4.1-1,5.9
		c-0.8,3.2-1.8,5.9-3.1,8c-1.3,2.1-3,3.5-5.1,4.3c-2.1,0.8-4.8,0.8-8,0l-16.5-3.9c-0.6,0-1.2,0.3-1.6,0.8c-0.5,0.5-0.8,1.1-1.2,1.7
		l-7.6-2c0.2-1.2,0.4-2.4,0.6-3.7c0.2-1.3,0.5-2.3,0.8-3c0.5-1.3,1-2.3,1.7-3.1c0.7-0.8,1.3-1.4,1.9-1.7c-0.2-0.9-0.3-2-0.5-3.4
		c-0.1-1.4-0.2-2.9-0.1-4.5C874,584.9,874.2,583.3,874.6,581.7z M882.2,586.5c-0.2,0.8-0.3,1.7-0.3,2.7c0,0.9,0,1.8,0.1,2.7
		c0.1,0.9,0.1,1.6,0.2,2.1l7.4,1.7l0.9-6.7c0.2-1.4,0-2.6-0.6-3.4c-0.6-0.8-1.5-1.4-2.8-1.7c-1.3-0.3-2.3-0.2-3.2,0.2
		S882.5,585.3,882.2,586.5z"/>
	<path d="M861.5,627.7c0.4-1.3,1.1-2.8,1.9-4.6c0.8-1.8,1.6-3.6,2.5-5.4c0.9-1.8,1.7-3.5,2.4-4.9l50.6,18l-4,11.1l-15.5-5.5
		c0,1.3-0.1,2.8-0.3,4.7c-0.2,1.9-0.6,3.5-1.1,4.9c-1.2,3.4-2.9,5.9-5.1,7.4c-2.2,1.5-4.7,2.2-7.8,2.1s-6.5-0.9-10.5-2.3
		c-4.9-1.7-8.6-3.7-11-5.8c-2.5-2.1-3.9-4.8-4.2-7.9C859.1,636.4,859.8,632.4,861.5,627.7z M870.6,631.1c-0.7,2-0.9,3.7-0.4,5
		s1.4,2.4,2.8,3.3c1.4,0.9,3.2,1.8,5.4,2.5c2.3,0.8,4.2,1.3,5.7,1.5c1.5,0.2,2.7-0.1,3.6-0.7c0.9-0.6,1.6-1.6,2.1-3
		c0.4-1,0.6-2.1,0.7-3.3c0.1-1.2,0.2-2.3,0.2-3.1l-18.2-6.5c-0.3,0.6-0.6,1.3-1,2.2C871.1,629.8,870.8,630.5,870.6,631.1z"/>
	<path d="M852,654.2l49.2,22.5l-4.9,10.7L847.1,665L852,654.2z"/>
	<path d="M834.3,687.6c2.1-3.8,4.5-6.5,7-8c2.5-1.6,5.3-2.1,8.4-1.6c3.1,0.5,6.6,1.8,10.5,4c4.1,2.3,7.1,4.8,9.1,7.5
		c2,2.7,3,5.6,3,8.6c0,3.1-1,6.4-3,9.9c-2.9,5.2-6.4,8.4-10.4,9.6c-4,1.2-8.7,0.3-14.1-2.8l-5-3.5l11.6-20.7c-2.2-1.2-4-1.6-5.6-1.3
		c-1.5,0.3-2.9,1.5-4.1,3.6c-0.8,1.4-1.6,3-2.5,4.7c-0.9,1.8-1.8,3.5-2.7,5.3c-0.9,1.7-1.6,3.3-2.2,4.5l-7.1-3.7
		c0.4-1.3,1-2.9,1.8-4.8c0.7-1.9,1.5-3.8,2.4-5.8C832.4,691.2,833.3,689.3,834.3,687.6z M857.8,694.1l-6.2,11
		c2.7,1.5,4.8,2.1,6.3,1.9c1.5-0.3,2.8-1.3,3.9-3.2c1.1-1.9,1.3-3.6,0.7-5.1C861.9,697.1,860.3,695.6,857.8,694.1z"/>
	<path d="M822.9,735.6l7.8,6L816.4,760l-7.8-6L822.9,735.6z"/>
	<path d="M777.7,766.3l35.8,38.2l-14.9,14c-3,2.8-6,4.8-8.9,6c-2.9,1.2-5.7,1.5-8.5,1.2c-2.7-0.4-5.5-1.5-8.2-3.2
		c-2.7-1.8-5.5-4.1-8.2-7.1c-2.8-3-5-5.9-6.8-8.8s-2.8-5.8-3.2-8.7c-0.4-2.9,0-5.8,1.2-8.6c1.2-2.9,3.4-5.7,6.4-8.6L777.7,766.3z
		 M775.8,782l-5.8,5.4c-1.6,1.5-2.7,3.1-3.1,4.7c-0.5,1.6-0.4,3.2,0.1,4.8c0.5,1.6,1.4,3.2,2.6,4.9c1.2,1.7,2.6,3.4,4.2,5.1
		c1.6,1.7,3.2,3.2,4.6,4.3c1.5,1.2,2.9,2,4.4,2.5c1.5,0.5,3,0.5,4.5,0.1c1.5-0.4,3.1-1.4,4.7-2.9l5.8-5.4L775.8,782z"/>
	<path d="M726.2,809.4c3.5-2.6,6.8-4,9.7-4.4c2.9-0.4,5.7,0.3,8.3,2c2.6,1.7,5.2,4.4,7.9,8c2.8,3.8,4.5,7.3,5.2,10.6
		c0.7,3.3,0.4,6.3-0.8,9.1c-1.3,2.8-3.5,5.4-6.8,7.8c-4.8,3.5-9.3,5-13.4,4.5c-4.1-0.5-8-3.3-11.7-8.3l-3.1-5.3l19.1-14
		c-1.5-2-3-3.1-4.5-3.5c-1.5-0.4-3.3,0.2-5.3,1.6c-1.3,0.9-2.7,2-4.3,3.3c-1.5,1.2-3.1,2.5-4.6,3.7c-1.5,1.2-2.8,2.3-3.9,3.2
		l-4.9-6.3c0.9-1,2.1-2.2,3.6-3.6c1.5-1.4,3-2.8,4.6-4.3C723,811.8,724.6,810.5,726.2,809.4z M745,825l-10.2,7.5
		c1.8,2.5,3.5,3.9,5,4.3c1.5,0.4,3.1,0,4.9-1.3s2.7-2.7,2.8-4.4C747.5,829.4,746.7,827.4,745,825z"/>
	<path d="M697.5,811.2l27.2,47.5l-10.1,5.8l-1.3-2c-0.4,0.8-0.9,1.6-1.6,2.6c-0.7,1-1.4,1.9-2.3,2.8s-1.9,1.6-2.9,2.2
		c-4.5,2.6-8.6,3-12.3,1.2s-7.1-5.6-10.4-11.4c-2.3-4.1-3.8-7.7-4.3-10.9c-0.5-3.2-0.1-6,1.4-8.4c1.4-2.4,3.9-4.7,7.5-6.7
		c1.1-0.6,2.3-1.2,3.6-1.7c1.3-0.5,2.4-0.9,3.3-1.2l-7.9-13.9L697.5,811.2z M695.1,841.2c-1.6,0.9-2.6,2-3.1,3.2
		c-0.5,1.2-0.5,2.7-0.1,4.3s1.2,3.5,2.4,5.5c1.9,3.3,3.7,5.4,5.3,6.1c1.6,0.7,3.3,0.6,5-0.4c0.6-0.3,1.2-0.8,1.8-1.3
		c0.6-0.6,1.2-1.1,1.6-1.7c0.5-0.6,0.9-1.1,1.2-1.6l-9.3-16.3c-0.5,0.2-1.2,0.4-2.1,0.8C696.8,840.3,695.9,840.7,695.1,841.2z"/>
	<path d="M651.6,852.1c4-1.7,7.5-2.4,10.4-2.1s5.5,1.6,7.7,3.8c2.2,2.3,4.1,5.4,5.9,9.5c1.8,4.3,2.8,8.1,2.7,11.5
		c0,3.3-1,6.2-2.8,8.7c-1.9,2.4-4.6,4.5-8.4,6.1c-5.5,2.4-10.2,2.8-14,1.4c-3.9-1.5-7.1-5-9.5-10.7l-1.8-5.8l21.8-9.4
		c-1-2.2-2.2-3.7-3.6-4.4s-3.2-0.6-5.5,0.4c-1.5,0.6-3.1,1.4-4.9,2.2c-1.8,0.9-3.6,1.7-5.3,2.6c-1.8,0.9-3.2,1.6-4.5,2.3l-3.4-7.3
		c1.1-0.8,2.5-1.7,4.3-2.7s3.5-2.1,5.4-3.1C648,853.8,649.8,852.8,651.6,852.1z M666.4,871.4l-11.6,5c1.2,2.8,2.5,4.6,3.9,5.3
		c1.4,0.7,3,0.7,5-0.2s3.2-2.1,3.7-3.6C667.9,876.4,667.6,874.2,666.4,871.4z"/>
	<path d="M627.9,862.8l11.2,37.1l-11.2,3.4l-0.7-2.3c-0.6,0.7-1.4,1.5-2.4,2.3c-0.9,0.8-2,1.5-3.1,2.2c-1.1,0.7-2.2,1.2-3.3,1.5
		c-3.5,1.1-6.4,1.3-8.7,0.6c-2.3-0.6-4.3-2.2-5.9-4.7c-1.6-2.5-3.2-6.1-4.5-10.7l-5.8-19.1l11.3-3.4l5.6,18.4
		c0.7,2.3,1.4,4.1,2.1,5.5c0.7,1.3,1.6,2.2,2.5,2.6c0.9,0.4,2.1,0.4,3.5,0c0.8-0.2,1.6-0.6,2.4-1c0.8-0.4,1.5-0.8,2.2-1.3
		s1.2-0.9,1.6-1.3l-8-26.5L627.9,862.8z"/>
	<path d="M571.7,876.6c1.9-0.3,3.7-0.4,5.4-0.2c1.7,0.2,3.1,0.7,4.4,1.5c1.3,0.8,2.5,1.9,3.5,3.3c1,1.4,1.9,3.2,2.7,5.3
		c0.8,2.1,1.4,4.6,1.9,7.4c0.8,4.3,0.9,8,0.3,11.2c-0.6,3.2-1.9,5.8-4,7.8c-2.1,2-5.2,3.3-9.1,4c-1.1,0.2-2.4,0.4-4,0.5
		c-1.5,0.1-2.8,0.2-3.7,0.2l2.7,15l-11.6,2.1l-9.5-53.3l11.4-2l0.4,2c0.6-0.5,1.5-1.1,2.5-1.8c1-0.6,2.1-1.2,3.2-1.8
		S570.6,876.8,571.7,876.6z M570.3,886.8c-0.8,0.1-1.5,0.4-2.3,0.7c-0.8,0.3-1.5,0.7-2.2,1c-0.7,0.4-1.2,0.6-1.6,0.9l3.3,18.7
		c0.4,0,1,0,1.6,0c0.7,0,1.4-0.1,2.1-0.2c0.7-0.1,1.4-0.2,1.9-0.3c1.8-0.3,3.1-1,3.9-2c0.8-1,1.3-2.3,1.4-4s0-3.5-0.4-5.7
		c-0.3-1.9-0.8-3.5-1.2-4.7c-0.5-1.2-1-2.2-1.7-2.9s-1.4-1.2-2.2-1.4C572,886.6,571.2,886.6,570.3,886.8z"/>
	<path d="M530.8,882.1c4.2-0.3,7.4,0.6,9.6,2.5c2.2,1.9,3.4,5,3.7,9.2c0.2,3-0.2,5.3-1.2,7s-2.5,3-4.6,3.8c-2.1,0.9-4.6,1.4-7.5,1.8
		l-8.6,1.2l0.1,2c0.1,1.5,0.6,2.6,1.5,3.2c0.9,0.6,2.1,0.8,3.8,0.7c1.5-0.1,3.2-0.3,5.1-0.5c1.9-0.2,3.8-0.5,5.6-0.7
		c1.8-0.3,3.4-0.5,4.7-0.8l0.9,8.1c-1.4,0.4-3,0.9-4.9,1.4c-1.9,0.5-3.9,0.9-6,1.2c-2.1,0.4-4,0.6-5.9,0.7c-3.3,0.2-6.2,0-8.6-0.6
		c-2.4-0.6-4.2-1.9-5.6-3.7c-1.3-1.8-2.1-4.4-2.3-7.7l-1.1-16.9c-0.2-0.6-0.6-1.1-1.2-1.4c-0.6-0.3-1.3-0.5-2-0.6l-0.3-7.9
		c1.2-0.2,2.4-0.3,3.7-0.5c1.3-0.1,2.3-0.2,3.1-0.1c1.3,0.1,2.5,0.3,3.5,0.7c1,0.4,1.7,0.9,2.2,1.4c0.8-0.4,1.8-0.9,3.1-1.4
		c1.3-0.5,2.7-1,4.3-1.4S529.2,882.2,530.8,882.1z M528.4,890.8c-0.9,0.1-1.7,0.2-2.6,0.5c-0.9,0.3-1.7,0.5-2.5,0.9
		c-0.8,0.3-1.5,0.6-2,0.8l0.5,7.6l6.7-1c1.4-0.2,2.4-0.8,3.1-1.5c0.6-0.8,0.9-1.8,0.8-3.2c-0.1-1.3-0.5-2.3-1.1-3
		C530.6,891,529.7,890.7,528.4,890.8z"/>
	<path d="M483,882.9c1.3,0.1,3,0.2,4.9,0.5c1.9,0.2,3.9,0.5,5.9,0.8c2,0.3,3.8,0.6,5.4,0.9l-2.5,53.6l-11.8-0.5l0.8-16.5
		c-1.2,0.4-2.7,0.7-4.6,1.1c-1.9,0.3-3.5,0.5-5,0.4c-3.6-0.2-6.5-1.1-8.6-2.7c-2.1-1.6-3.5-3.9-4.3-6.8c-0.8-2.9-1.1-6.5-0.9-10.7
		c0.2-5.2,1-9.3,2.3-12.3c1.3-3,3.4-5.1,6.4-6.3C474,883.1,477.9,882.6,483,882.9z M482.4,892.6c-2.2-0.1-3.8,0.2-4.9,1
		c-1.1,0.8-1.9,2-2.4,3.6c-0.5,1.6-0.7,3.6-0.9,5.9c-0.1,2.5,0,4.4,0.3,5.9c0.3,1.5,0.9,2.6,1.7,3.2c0.8,0.7,2,1.1,3.5,1.1
		c1.1,0.1,2.2-0.1,3.4-0.3c1.2-0.3,2.2-0.5,3-0.7l0.9-19.3c-0.7-0.1-1.5-0.2-2.4-0.3S483,892.7,482.4,892.6z"/>
	<path d="M454.8,881.6l-7.1,53.7l-11.7-1.6l7.1-53.7L454.8,881.6z"/>
	<path d="M417.7,874.4c4.3,0.9,7.5,2.4,9.7,4.3c2.2,2,3.6,4.5,4,7.6c0.5,3.1,0.2,6.8-0.8,11.2c-1,4.6-2.5,8.2-4.5,10.9
		c-2,2.7-4.4,4.5-7.4,5.4c-2.9,0.9-6.4,0.9-10.3,0.1c-5.8-1.3-9.9-3.6-12.2-7.1c-2.3-3.5-2.8-8.2-1.5-14.3l1.9-5.8l23.2,5.1
		c0.5-2.4,0.4-4.3-0.4-5.7c-0.7-1.4-2.3-2.4-4.7-2.9c-1.6-0.3-3.3-0.7-5.3-1c-1.9-0.3-3.9-0.7-5.8-1c-1.9-0.3-3.6-0.6-5-0.8l1.5-7.9
		c1.4,0,3,0.1,5.1,0.3s4.1,0.4,6.2,0.6C413.7,873.6,415.8,874,417.7,874.4z M418.4,898.7l-12.3-2.7c-0.7,3-0.6,5.2,0,6.6
		c0.7,1.4,2.1,2.3,4.2,2.8c2.1,0.5,3.8,0.2,5.1-0.8C416.7,903.6,417.7,901.6,418.4,898.7z"/>
	<path d="M368.5,877.5l-3.5,9.2l-21.7-8.3l3.5-9.2L368.5,877.5z"/>
	<path d="M325.8,842.6l-24.5,46.3l-10.8-5.7l24.5-46.3L325.8,842.6z"/>
	<path d="M306.1,832.2L285,864.7l-9.8-6.4l1.3-2c-1,0-2.1-0.1-3.3-0.3c-1.2-0.2-2.4-0.5-3.7-0.9c-1.2-0.4-2.3-0.9-3.3-1.5
		c-3.1-2-5.1-4.1-6.1-6.2c-1-2.2-1.1-4.7-0.2-7.6c0.9-2.9,2.6-6.3,5.2-10.3l10.9-16.7l9.9,6.4l-10.5,16.1c-1.3,2-2.2,3.7-2.8,5.2
		c-0.6,1.4-0.7,2.6-0.4,3.6c0.3,1,1,1.9,2.2,2.6c0.7,0.4,1.4,0.8,2.3,1.2c0.8,0.3,1.6,0.6,2.4,0.8c0.8,0.2,1.5,0.3,2,0.4l15.1-23.3
		L306.1,832.2z"/>
	<path d="M268.9,807.4l-24.7,29.8l-9-7.5l1.5-1.8c-1-0.1-2-0.4-3.2-0.7c-1.2-0.3-2.4-0.8-3.5-1.3c-1.2-0.5-2.2-1.2-3.1-1.9
		c-2.8-2.3-4.6-4.6-5.4-6.9c-0.8-2.3-0.5-4.8,0.7-7.6c1.2-2.8,3.3-6,6.4-9.7l12.7-15.4l9.1,7.5l-12.3,14.8c-1.5,1.9-2.7,3.5-3.4,4.8
		c-0.7,1.3-1,2.5-0.8,3.5c0.2,1,0.8,2,1.9,2.9c0.6,0.5,1.3,1,2.1,1.4c0.8,0.4,1.5,0.8,2.3,1.1c0.8,0.3,1.4,0.5,2,0.6l17.7-21.4
		L268.9,807.4z"/>
	<path d="M223.6,765.5c3,3.1,5,6.2,5.9,9.2c0.9,3,0.7,5.9-0.6,8.9c-1.3,3-3.7,6.2-7.1,9.5c-3.4,3.3-6.6,5.4-9.6,6.5
		c-3,1.1-6,1.1-8.9,0.1s-5.8-3.1-8.8-6.1c-3-3.1-4.9-6.1-5.8-9.1c-0.9-2.9-0.8-5.9,0.5-8.9c1.2-3,3.5-6.1,6.9-9.4
		c3.4-3.3,6.7-5.6,9.7-6.7c3.1-1.2,6-1.3,9-0.3C217.6,760.2,220.5,762.3,223.6,765.5z M216.6,772.2c-1.3-1.4-2.6-2.1-3.7-2.3
		c-1.2-0.2-2.5,0.2-3.8,1c-1.4,0.9-3,2.2-4.8,4c-1.9,1.8-3.2,3.4-4,4.7c-0.8,1.3-1.1,2.6-0.9,3.7c0.2,1.1,0.9,2.4,2.1,3.6
		c1.2,1.2,2.3,2,3.5,2.2c1.2,0.2,2.4,0,3.8-0.8c1.4-0.8,3-2,4.8-3.8c1.9-1.8,3.2-3.3,4.1-4.7c0.9-1.4,1.3-2.6,1.1-3.8
		C218.6,774.8,217.9,773.5,216.6,772.2z"/>
	<path d="M201.4,742L176,772.4l-7.6-10l19.4-22.1l-1.2-1.5l-26.4,13l-7.2-9.4l36-16.8L201.4,742z"/>
	<path d="M175.4,703.9c2.2,3.6,2.9,6.8,2.3,9.7c-0.7,2.8-2.8,5.4-6.4,7.5c-2.5,1.5-4.8,2.3-6.7,2.2c-2-0.1-3.8-0.9-5.5-2.3
		c-1.7-1.4-3.4-3.4-5.1-5.8l-5.1-7l-1.7,1c-1.3,0.8-2,1.7-2.1,2.8c-0.1,1.1,0.3,2.3,1.1,3.7c0.8,1.3,1.7,2.7,2.8,4.3
		c1.1,1.6,2.2,3.1,3.2,4.6c1.1,1.5,2,2.8,2.9,3.8l-6.8,4.6c-1-1-2.2-2.2-3.5-3.7c-1.3-1.5-2.6-3-3.9-4.7c-1.3-1.7-2.4-3.3-3.4-4.9
		c-1.7-2.9-2.9-5.5-3.4-7.9c-0.5-2.4-0.3-4.6,0.6-6.7c1-2,2.9-3.9,5.7-5.6l14.5-8.8c0.4-0.5,0.7-1,0.6-1.7c0-0.7-0.2-1.4-0.4-2.1
		l6.8-3.9c0.7,1,1.4,2,2.1,3.1c0.7,1.1,1.2,2,1.6,2.7c0.6,1.2,0.9,2.4,1,3.4c0.1,1.1,0,1.9-0.2,2.6c0.7,0.5,1.6,1.2,2.7,2.1
		c1.1,0.9,2.2,1.9,3.2,3.1C173.6,701.2,174.5,702.5,175.4,703.9z M166.6,705.8c-0.5-0.7-1-1.4-1.6-2.1c-0.6-0.7-1.3-1.3-1.9-1.8
		c-0.6-0.6-1.2-1-1.6-1.4l-6.5,4l4,5.5c0.9,1.1,1.8,1.8,2.8,2c1,0.2,2-0.1,3.2-0.8c1.1-0.7,1.8-1.5,2.2-2.4S167.2,706.9,166.6,705.8
		z"/>
	<path d="M153.4,663.8c1.3,2.6,1.9,4.9,2,6.8c0.1,2-0.6,3.7-2.1,5.3c-1.5,1.6-3.9,3.2-7.2,4.8l-14.3,7l1.8,3.7l-8.7,4.2L123,692
		l-8.7,4.2l-5.1-10.6l8.7-4.2l-4-8.2l8.7-4.2l4,8.2l11.7-5.7c1.6-0.8,2.8-1.4,3.6-2c0.8-0.6,1.3-1.2,1.4-1.9
		c0.1-0.7-0.1-1.5-0.6-2.6c-0.1-0.3-0.4-0.7-0.7-1.3c-0.3-0.6-0.7-1.2-1-1.8c-0.3-0.6-0.6-1.1-0.8-1.4l8.2-4.3
		c0.8,1,1.7,2.3,2.7,3.8C152.1,661.5,152.9,662.7,153.4,663.8z"/>
	<path d="M105.1,666l-8.7,3.5l-4.4-10.9l8.7-3.5L105.1,666z M146,649.5L110,664l-4.4-10.9l35.9-14.5L146,649.5z"/>
	<path d="M136.2,624.2l-34.4,19.8l-3.7-12l25.8-14l-0.6-1.8l-29.2,3l-3.5-11.3l39.5-3.3L136.2,624.2z"/>
	<path d="M123.9,573.9c0.8,4.3,0.8,7.8-0.1,10.7c-0.9,2.8-2.7,5.1-5.4,6.7c-2.7,1.6-6.2,2.9-10.6,3.7c-4.6,0.9-8.5,1-11.8,0.2
		c-3.3-0.8-5.9-2.3-7.9-4.6c-2-2.3-3.4-5.5-4.2-9.5c-1.1-5.8-0.6-10.5,1.7-14c2.2-3.5,6.4-5.8,12.5-7l6.1-0.6l4.5,23.3
		c2.4-0.5,4.1-1.4,5.1-2.6c1-1.2,1.3-3,0.8-5.4c-0.3-1.6-0.7-3.3-1.1-5.2s-0.9-3.8-1.4-5.7c-0.5-1.9-0.9-3.5-1.3-4.9l7.8-1.8
		c0.5,1.3,1.1,2.8,1.8,4.8c0.7,1.9,1.3,3.9,1.9,6C123,570,123.5,572,123.9,573.9z M101.8,584.3l-2.4-12.4c-3,0.6-5,1.5-6,2.7
		c-1,1.2-1.3,2.8-0.9,5s1.3,3.6,2.8,4.4C96.7,584.6,98.9,584.8,101.8,584.3z"/>
	<path d="M101.5,530l-9.8,0.4l-1.1-23.2l9.8-0.4L101.5,530z"/>
	<path d="M117.1,467.4l-42-4.2l-1.3,13.3l-10.1-1l3.8-38.3l10.1,1l-1.3,12.9l42,4.2L117.1,467.4z"/>
	<path d="M121,436l-38-7.4l2.3-11.6l4.3,0.8c-0.5-0.9-1-2.1-1.5-3.4c-0.5-1.4-0.9-2.8-1.3-4.2s-0.5-2.9-0.4-4.2l11,2.1
		c-0.1,1.2,0,2.6,0.1,4c0.2,1.4,0.4,2.8,0.7,4.1c0.3,1.3,0.6,2.4,0.9,3.4l24.1,4.7L121,436z"/>
	<path d="M130.7,397.1c-1.2,4-3.1,6.8-5.6,8.2c-2.6,1.4-5.9,1.5-9.9,0.3c-2.9-0.8-4.9-2-6.1-3.5c-1.2-1.5-1.9-3.4-2-5.6
		c-0.1-2.2,0.2-4.8,0.9-7.7l1.8-8.5l-1.9-0.6c-1.5-0.4-2.6-0.3-3.5,0.3c-0.9,0.6-1.5,1.7-2,3.3c-0.4,1.4-0.9,3.1-1.3,4.9
		c-0.4,1.9-0.8,3.7-1.2,5.5s-0.7,3.4-0.9,4.7l-7.9-1.9c0-1.4,0.2-3.1,0.4-5.1c0.2-1.9,0.5-4,0.9-6c0.4-2.1,0.8-4,1.3-5.8
		c0.9-3.2,2.1-5.8,3.6-7.8c1.4-2,3.2-3.3,5.4-4c2.1-0.7,4.8-0.5,8,0.4l16.2,4.8c0.6,0,1.2-0.2,1.7-0.7c0.5-0.5,0.9-1,1.3-1.7
		l7.5,2.4c-0.2,1.2-0.5,2.4-0.8,3.6c-0.3,1.3-0.6,2.3-1,3c-0.5,1.2-1.2,2.2-1.9,3c-0.7,0.8-1.4,1.3-2,1.6c0.1,0.9,0.2,2,0.3,3.5
		c0.1,1.4,0,2.9-0.1,4.5C131.4,394,131.1,395.5,130.7,397.1z M123.3,391.9c0.2-0.8,0.4-1.7,0.5-2.6c0.1-0.9,0.1-1.8,0.1-2.7
		c0-0.9,0-1.6-0.1-2.1l-7.3-2.2l-1.3,6.7c-0.3,1.4-0.1,2.6,0.4,3.4c0.5,0.9,1.4,1.5,2.7,1.8c1.2,0.4,2.3,0.4,3.2,0
		S123,393.1,123.3,391.9z"/>
	<path d="M139.2,366.5l-35.7-15.1l4.6-10.8l2.2,0.9c-0.2-1-0.2-2-0.2-3.3c0-1.2,0.1-2.5,0.3-3.8c0.2-1.3,0.5-2.5,0.9-3.5
		c1.4-3.4,3.1-5.7,5.1-7.1c1.9-1.4,4.4-1.9,7.4-1.5c3,0.4,6.7,1.5,11.1,3.3l18.4,7.8l-4.6,10.8l-17.7-7.5c-2.2-0.9-4.1-1.6-5.6-1.9
		c-1.5-0.3-2.7-0.2-3.6,0.2c-0.9,0.4-1.7,1.3-2.2,2.7c-0.3,0.8-0.6,1.6-0.8,2.4c-0.2,0.9-0.3,1.7-0.4,2.5c-0.1,0.8-0.1,1.5,0,2.1
		l25.5,10.8L139.2,366.5z"/>
	<path d="M165.2,313.3c-0.9,1.7-2,3.3-3.1,5c-1.2,1.6-2.3,3.1-3.3,4.5c-1.1,1.3-2,2.4-2.8,3.3l-7.2-4.5c0.8-1.1,1.7-2.3,2.7-3.7
		c1-1.4,2-2.7,2.9-4.1c0.9-1.4,1.7-2.5,2.2-3.4c0.7-1.2,1.1-2.2,1.4-3.1c0.2-0.9,0.3-1.6,0-2.2c-0.2-0.6-0.8-1.2-1.6-1.6
		c-0.6-0.3-1.2-0.4-1.7-0.2c-0.6,0.2-1.2,0.7-2,1.5c-0.8,0.8-1.8,2.1-3.2,3.8c-1.8,2.3-3.4,4.1-5,5.3c-1.6,1.2-3.3,1.8-5.1,1.8
		c-1.8,0-3.8-0.7-6.1-2c-2.9-1.6-4.8-3.5-5.8-5.6c-0.9-2.1-1.1-4.4-0.6-6.8c0.5-2.4,1.4-4.9,2.8-7.3c1-1.7,2-3.4,3.1-5
		c1.1-1.6,2.2-3.1,3.3-4.5c1.1-1.4,2-2.5,2.7-3.3l7.5,4.6c-0.8,1-1.7,2.2-2.7,3.7c-1,1.4-1.9,2.8-2.8,4.2c-0.9,1.4-1.6,2.6-2.2,3.6
		c-0.5,0.9-0.9,1.8-1.1,2.6c-0.2,0.8-0.3,1.5-0.1,2c0.2,0.6,0.6,1.1,1.3,1.5c0.5,0.3,1.1,0.4,1.6,0.3c0.5-0.1,1.2-0.6,1.9-1.4
		c0.8-0.8,1.8-2,3-3.7c1.9-2.5,3.7-4.4,5.4-5.6c1.7-1.2,3.4-1.8,5.2-1.8c1.8,0,3.8,0.7,6.1,2c4.1,2.3,6.3,5.1,6.7,8.5
		C168.8,304.9,167.7,308.8,165.2,313.3z"/>
	<path d="M189.4,301.5l-44.7-31.7l6.7-9.5l2,1.3c0-0.9,0.2-1.9,0.3-3c0.2-1.2,0.5-2.3,0.9-3.5c0.4-1.2,1-2.3,1.7-3.2
		c3-4.3,6.6-6.3,10.6-6.2c4.1,0.1,8.8,2.1,14.3,6c3.9,2.7,6.7,5.4,8.5,8.1c1.8,2.6,2.6,5.4,2.3,8.2c-0.3,2.8-1.6,5.9-4,9.3
		c-0.7,1-1.6,2-2.6,3c-1,1-1.8,1.8-2.5,2.5l13.1,9.3L189.4,301.5z M179.1,273.2c1.1-1.5,1.6-2.9,1.5-4.3c-0.1-1.3-0.7-2.6-1.7-3.9
		c-1.1-1.3-2.6-2.6-4.5-4c-3.1-2.2-5.6-3.3-7.4-3.3c-1.8,0-3.2,0.8-4.4,2.5c-0.4,0.5-0.7,1.2-1,1.9c-0.3,0.8-0.6,1.5-0.8,2.2
		c-0.2,0.7-0.4,1.4-0.4,2l15.3,10.9c0.4-0.4,0.9-0.9,1.6-1.7C177.9,274.8,178.5,274,179.1,273.2z"/>
	<path d="M210.1,249.3c-2.8,3.1-5.7,4.8-8.6,5c-2.9,0.2-5.9-1.1-9.1-3.9c-2.2-2-3.6-3.9-4-5.8c-0.5-1.9-0.3-3.9,0.6-5.9
		c0.9-2,2.2-4.2,4.1-6.6l5.2-6.9l-1.5-1.3c-1.1-1-2.2-1.4-3.3-1.2c-1,0.2-2.1,0.9-3.2,2.1c-1,1.1-2.1,2.4-3.3,3.9
		c-1.2,1.5-2.3,3-3.5,4.4s-2.1,2.8-2.8,3.9l-6.3-5.1c0.7-1.3,1.5-2.7,2.5-4.4c1-1.7,2.2-3.3,3.4-5.1c1.2-1.7,2.5-3.3,3.7-4.7
		c2.2-2.5,4.4-4.3,6.6-5.6c2.1-1.2,4.3-1.7,6.6-1.3c2.2,0.3,4.6,1.6,7.1,3.8l12.6,11.3c0.6,0.3,1.2,0.3,1.8,0.1
		c0.6-0.2,1.3-0.5,1.9-1l5.7,5.4c-0.7,0.9-1.5,1.9-2.3,2.9c-0.8,1-1.5,1.8-2.1,2.3c-1,0.9-2,1.5-3,1.9c-1,0.4-1.8,0.6-2.5,0.6
		c-0.3,0.9-0.7,1.9-1.2,3.2c-0.5,1.3-1.2,2.6-2,4C212.1,246.8,211.2,248,210.1,249.3z M205.7,241.4c0.6-0.7,1.1-1.4,1.5-2.2
		c0.4-0.8,0.8-1.6,1.2-2.4c0.4-0.8,0.6-1.4,0.8-2l-5.7-5.1l-4.1,5.5c-0.8,1.2-1.2,2.3-1.1,3.3c0.1,1,0.7,1.9,1.7,2.8
		c1,0.9,1.9,1.3,2.9,1.4C203.9,242.8,204.8,242.3,205.7,241.4z"/>
	<path d="M231.2,225.3l-26.4-28.4l8.6-8l3,3.2c0.1-1,0.4-2.3,0.8-3.6c0.4-1.4,0.9-2.8,1.5-4.2s1.3-2.6,2.1-3.6l7.7,8.2
		c-0.8,1-1.6,2.1-2.3,3.3c-0.7,1.3-1.3,2.5-1.9,3.7s-1,2.3-1.3,3.2l16.7,18L231.2,225.3z"/>
	<path d="M266.4,196.1c-3.5,2.7-6.7,4.2-9.6,4.6c-2.9,0.4-5.7-0.2-8.4-1.8c-2.7-1.6-5.3-4.2-8.1-7.8c-2.8-3.7-4.7-7.2-5.4-10.4
		c-0.8-3.2-0.6-6.3,0.6-9.1c1.2-2.8,3.4-5.5,6.6-7.9c4.7-3.6,9.1-5.2,13.3-4.8c4.1,0.4,8.1,3.1,11.9,8.1l3.2,5.2l-18.8,14.5
		c1.5,1.9,3.1,3.1,4.6,3.4c1.5,0.3,3.3-0.2,5.2-1.7c1.3-1,2.7-2.1,4.2-3.4c1.5-1.3,3-2.5,4.5-3.8c1.5-1.3,2.7-2.4,3.8-3.3l5.1,6.2
		c-0.9,1-2.1,2.2-3.5,3.7s-2.9,2.9-4.5,4.4C269.5,193.6,268,195,266.4,196.1z M247.3,181l10-7.7c-1.9-2.4-3.6-3.8-5.1-4.2
		c-1.5-0.4-3.1,0.1-4.8,1.4c-1.7,1.3-2.6,2.8-2.7,4.4C244.7,176.6,245.5,178.6,247.3,181z"/>
	<path d="M286.8,179.9l-20-33.2l10-6l1.2,2c0.4-0.9,1-1.8,1.7-2.8c0.7-1,1.5-2,2.4-2.9c0.9-0.9,1.8-1.7,2.8-2.3
		c3.1-1.9,5.9-2.8,8.3-2.8c2.4,0,4.7,1.1,6.9,3.1c2.2,2,4.6,5.1,7,9.2l10.3,17.1l-10.1,6.1l-9.9-16.5c-1.2-2.1-2.4-3.7-3.4-4.8
		c-1-1.1-2.1-1.8-3.1-1.9c-1-0.2-2.1,0.1-3.4,0.9c-0.7,0.4-1.4,0.9-2.1,1.5c-0.7,0.6-1.3,1.2-1.8,1.8c-0.5,0.6-0.9,1.2-1.3,1.7
		l14.3,23.7L286.8,179.9z"/>
	<path d="M338.5,152.3c-2.6,1.2-4.9,1.9-6.8,1.9c-2,0.1-3.7-0.7-5.3-2.1c-1.6-1.5-3.2-3.9-4.8-7.2l-6.9-14.4l-3.8,1.8l-4.2-8.8
		l3.8-1.8l-4.1-8.7L317,108l4.1,8.7l8.2-3.9l4.2,8.8l-8.2,3.9l5.6,11.7c0.8,1.6,1.4,2.8,2,3.6c0.6,0.8,1.2,1.3,1.9,1.4
		c0.7,0.1,1.5-0.1,2.6-0.5c0.3-0.1,0.7-0.4,1.3-0.7c0.6-0.3,1.2-0.7,1.8-1c0.6-0.3,1.1-0.6,1.4-0.8l4.3,8.3c-1,0.8-2.3,1.7-3.8,2.7
		C340.9,151,339.6,151.8,338.5,152.3z"/>
</g>
</svg>
