<?xml version="1.0" encoding="utf-8"?>
<!-- Generator: Adobe Illustrator 23.0.5, SVG Export Plug-In . SVG Version: 6.00 Build 0)  -->
<svg version="1.1" id="Layer_1" xmlns="http://www.w3.org/2000/svg" xmlns:xlink="http://www.w3.org/1999/xlink" x="0px" y="0px"
	 viewBox="0 0 1000 1000" style="enable-background:new 0 0 1000 1000;" xml:space="preserve">
<g>
	<path d="M361.4,126.4l-2.9-8.6l20.1-6.9l2.9,8.6L361.4,126.4z"/>
	<path d="M410.7,125.6l-15.8-46l11.1-1.9l11.5,35.7l1.5-0.3l0.1-37.2l12.2-2.1l12.9,34.9l1.6-0.3L443.9,71l11.1-1.9l0.9,48.6l-17,3
		l-12-34.8l0.1,0l0.4,36.8L410.7,125.6z"/>
	<path d="M467.2,116.9l-2.1-48l32.7-1.5l0.4,9.1l-21.6,1l0.4,10.1l17.4-0.8l0.4,9l-17.4,0.8l0.5,10.6l21.6-1l0.4,9.2L467.2,116.9z"
		/>
	<path d="M516.5,115.6L532.9,69l18.6,1.8l7.2,48.9l-11.2-1.1l-1.5-9l-15.5-1.5l-3.1,8.6L516.5,115.6z M533,99.5l12.4,1.2l-2.8-21.8
		l-2.7-0.3L533,99.5z"/>
	<path d="M561.8,120.4l9.9-47l18.7,3.9c4,0.8,7.2,2,9.6,3.5c2.4,1.5,4.1,3.6,4.9,6.1c0.8,2.6,0.8,5.9,0,9.9
		c-0.7,3.4-1.9,6.1-3.5,8.1c-1.6,2.1-3.7,3.4-6.3,4.1l3.1,18.9l-11.3-2.4l-2.3-16.1l-8.6-1.8l-3.1,15L561.8,120.4z M577.8,98.8
		l8,1.7c1.5,0.3,2.8,0.3,3.9-0.2c1.1-0.4,1.9-1.1,2.6-2.2s1.1-2.2,1.4-3.7c0.5-2.3,0.3-4.2-0.5-5.6c-0.8-1.4-2.4-2.3-4.7-2.8
		l-7.7-1.6L577.8,98.8z"/>
	<path d="M603.2,129.5l14.7-45.7l31.2,10l-2.8,8.7l-20.6-6.6l-3.1,9.6l16.5,5.3l-2.8,8.6l-16.5-5.3l-3.2,10.1l20.6,6.6l-2.8,8.7
		L603.2,129.5z"/>
	<path d="M668.4,155.5c-3.4-1.6-6-3.4-7.8-5.3s-2.9-4.1-3.4-6.5c-0.4-2.4-0.2-5.2,0.6-8.3c0.8-3.1,2.2-6.6,4.1-10.6
		c1.9-4,3.8-7.3,5.7-9.9c1.9-2.6,3.9-4.5,6.1-5.6s4.6-1.6,7.2-1.4c2.7,0.2,5.8,1.2,9.3,2.9c1.4,0.7,2.8,1.4,4.2,2.3
		c1.5,0.9,2.9,1.8,4.2,2.8c1.3,1,2.5,1.8,3.4,2.6l-4,7.8c-0.8-0.5-1.8-1.2-2.9-1.9c-1.2-0.7-2.4-1.4-3.6-2.2
		c-1.2-0.7-2.4-1.4-3.6-1.9c-1.9-0.9-3.6-1.4-5-1.5c-1.4-0.1-2.7,0.2-3.9,1c-1.2,0.8-2.3,2-3.4,3.6c-1.1,1.6-2.2,3.8-3.5,6.4
		c-1.2,2.6-2.2,4.8-2.8,6.7c-0.6,1.9-0.8,3.5-0.7,4.9c0.1,1.4,0.7,2.6,1.7,3.6c1,1,2.4,2,4.4,3c1.7,0.8,3.6,1.6,5.7,2.4
		c2.1,0.8,3.8,1.5,5.2,2l-3.6,7.9c-1.1-0.3-2.4-0.6-3.9-1c-1.5-0.4-3.2-1-4.9-1.6C671.5,157,669.9,156.3,668.4,155.5z"/>
	<path d="M685.8,163.4l24.7-41.2l9.6,5.7l-19.9,33.2l15.7,9.4l-4.8,8L685.8,163.4z"/>
	<path d="M711.4,178.5l38.1-31.5l15,11.1l-19,45.7l-9-6.7l3.3-8.5l-12.5-9.2l-7.1,5.7L711.4,178.5z M733.9,173.2l10,7.4l8.9-20.1
		l-2.2-1.6L733.9,173.2z"/>
	<path d="M747.9,205.9l32.7-35.1l13.7,12.8c2.8,2.6,4.8,5.2,6,7.8c1.2,2.6,1.8,5.1,1.6,7.7c-0.2,2.5-1,5.1-2.4,7.7
		c-1.5,2.6-3.5,5.3-6,8c-2.5,2.7-5.1,5-7.6,6.7c-2.6,1.8-5.1,2.9-7.8,3.5c-2.6,0.5-5.3,0.3-8-0.6c-2.7-0.9-5.5-2.7-8.3-5.4
		L747.9,205.9z M762.4,206.7l5.3,5c1.5,1.4,3,2.3,4.5,2.6c1.5,0.3,2.9,0.2,4.4-0.4c1.4-0.6,2.9-1.5,4.3-2.7c1.5-1.2,2.9-2.6,4.4-4.2
		c1.5-1.6,2.7-3.1,3.7-4.5c1-1.4,1.6-2.8,2-4.2c0.3-1.4,0.3-2.7-0.2-4.1c-0.5-1.3-1.5-2.7-2.9-4.1l-5.3-5L762.4,206.7z"/>
	<path d="M780.1,236.7l36.3-31.5l21.5,24.7l-6.9,6l-14.2-16.3l-7.6,6.6l11.4,13.1l-6.8,5.9l-11.4-13.1l-8,6.9l14.2,16.3l-6.9,6
		L780.1,236.7z"/>
	<path d="M804.6,265.3l39.3-27.6l6.4,9.1l-16,11.3l3.2,4.3l20.9-4.1l6.6,9.4l-25.4,5l-13.4,23.3l-6.7-9.5l9.8-18.2l-3.2-4.4
		l-15,10.6L804.6,265.3z"/>
	<path d="M835.2,311.4l42.8-21.7l8.2,16.3c1.9,3.7,3,7.1,3.3,10c0.3,2.9-0.4,5.6-2,8c-1.6,2.4-4.3,4.5-8.2,6.5
		c-3.8,1.9-7.1,2.8-10.1,2.8c-3-0.1-5.6-1.1-7.9-3c-2.3-1.9-4.4-4.8-6.3-8.5l-3.2-6.3l-11.7,5.9L835.2,311.4z M860,311.3l3,6
		c1.2,2.4,2.8,3.9,4.6,4.3c1.8,0.4,4,0,6.6-1.3c2.6-1.3,4.2-2.8,4.8-4.4c0.6-1.6,0.2-3.6-1-6.1l-3-6L860,311.3z"/>
	<path d="M852.3,345.2l49.1-5.8l6.6,17.4l-40.8,28l-3.9-10.5l7.4-5.3l-5.5-14.5l-9.1,1L852.3,345.2z M874.1,352.9l4.4,11.7
		l18.4-12.1l-0.9-2.5L874.1,352.9z"/>
	<path d="M868,388.1l46.5-11.9l4.5,17.7c1,4.1,1.4,7.6,1,10.5s-1.6,5.4-3.6,7.3c-2.1,2-5.2,3.5-9.4,4.5c-4.1,1-7.6,1.2-10.5,0.5
		c-2.9-0.7-5.2-2.2-7-4.6c-1.8-2.4-3.2-5.6-4.3-9.7l-1.7-6.8l-12.7,3.2L868,388.1z M892.3,393.4l1.7,6.5c0.7,2.6,1.9,4.4,3.5,5.2
		c1.7,0.8,3.9,0.9,6.8,0.1c2.9-0.7,4.8-1.8,5.7-3.3c0.9-1.4,1-3.5,0.3-6.2l-1.7-6.5L892.3,393.4z"/>
	<path d="M877.8,428.1l47.5-6.8l2.6,18c0.6,4.1,0.5,7.7-0.1,10.5s-2.1,5.2-4.4,6.9c-2.3,1.7-5.5,2.9-9.8,3.5
		c-4.2,0.6-7.7,0.4-10.5-0.6c-2.8-1-5-2.8-6.5-5.3c-1.6-2.6-2.6-5.9-3.2-10.1l-1-7l-13,1.9L877.8,428.1z M901.4,436l0.9,6.6
		c0.4,2.7,1.4,4.5,3,5.5c1.6,1,3.8,1.3,6.7,0.9c2.9-0.4,4.9-1.3,6-2.6c1-1.3,1.4-3.4,1-6.1l-0.9-6.6L901.4,436z"/>
	<path d="M883.2,469l48-1.9l1.3,32.7l-9.1,0.4l-0.9-21.6l-10.1,0.4l0.7,17.4l-9,0.4l-0.7-17.4l-10.6,0.4l0.9,21.6l-9.2,0.4
		L883.2,469z"/>
	<path d="M884.5,506.7l47.9,3l-1.2,19c-0.3,4-1,7.4-2.1,10c-1.2,2.6-2.9,4.5-5.3,5.7s-5.7,1.7-9.8,1.4c-3.4-0.2-6.3-1-8.6-2.3
		c-2.3-1.3-3.9-3.2-5-5.6l-18.3,5.8l0.7-11.6l15.6-4.6l0.5-8.7l-15.3-1L884.5,506.7z M908.1,519.4l-0.5,8.2
		c-0.1,1.5,0.1,2.8,0.7,3.8c0.6,1,1.4,1.8,2.5,2.2c1.1,0.5,2.4,0.8,3.8,0.9c2.4,0.2,4.2-0.3,5.5-1.3c1.2-1,1.9-2.7,2.1-5l0.5-7.9
		L908.1,519.4z"/>
	<path d="M893,565.8l8.9,1.7l-4,20.9l-8.9-1.7L893,565.8z"/>
	<path d="M869.2,609l47.7,9.1l-3.8,10.6l-36.7-7.8l-0.5,1.5l32.3,18.6l-4.2,11.6l-36.7-6.2l-0.6,1.5L900,665l-3.8,10.6l-42.6-23.4
		l5.9-16.3l36.2,6.8l0,0.1L863.4,625L869.2,609z"/>
	<path d="M848.6,662.4l42.7,22l-15,29.1l-8.1-4.2l9.9-19.2l-9-4.6l-8,15.4l-8-4.1l8-15.4l-9.4-4.9l-9.9,19.2l-8.2-4.2L848.6,662.4z"
		/>
	<path d="M825.2,705.7l32.2,37.5l-10.8,15.2l-46-18.2l6.5-9.1l8.6,3.2l9-12.6l-5.9-7L825.2,705.7z M830.9,728.1l-7.3,10.2l20.3,8.5
		l1.6-2.2L830.9,728.1z"/>
	<path d="M798.4,742.6l35.8,32l-12.7,14.2c-2.7,3-5.3,5.2-7.8,6.5c-2.5,1.3-5.1,1.7-7.7,1.2s-5.5-2.2-8.6-5
		c-2.6-2.3-4.3-4.7-5.3-7.1c-1-2.4-1.1-4.9-0.4-7.5l-17.9-6.7l7.7-8.6l15.1,6.1l5.8-6.5L791,751L798.4,742.6z M809.1,767.2l-5.5,6.1
		c-1,1.2-1.6,2.3-1.8,3.5s0,2.2,0.6,3.3c0.6,1.1,1.4,2.1,2.5,3.1c1.8,1.6,3.5,2.4,5.1,2.4c1.6,0,3.2-0.9,4.8-2.7l5.3-5.9
		L809.1,767.2z"/>
	<path d="M769.9,773.9l32.3,35.5l-24.2,22l-6.1-6.7l16-14.5l-6.8-7.5l-12.8,11.7l-6.1-6.7l12.8-11.7l-7.1-7.8l-16,14.5l-6.2-6.8
		L769.9,773.9z"/>
	<path d="M714.8,817.5c3.1-2.1,5.9-3.5,8.5-4.1c2.6-0.6,5-0.5,7.3,0.3c2.3,0.8,4.6,2.4,6.9,4.6c2.3,2.2,4.6,5.2,7.2,8.8
		c2.5,3.6,4.4,6.9,5.7,9.9c1.3,2.9,1.9,5.6,1.9,8.1c-0.1,2.4-0.9,4.8-2.4,7c-1.5,2.2-3.9,4.4-7.1,6.6c-1.2,0.9-2.6,1.7-4.1,2.5
		c-1.5,0.8-3,1.6-4.5,2.3c-1.5,0.7-2.8,1.2-3.9,1.7l-4.7-7.4c0.9-0.4,1.9-1,3.1-1.6c1.2-0.7,2.4-1.3,3.7-2.1
		c1.3-0.7,2.4-1.4,3.4-2.2c1.7-1.2,3-2.4,3.8-3.6c0.8-1.2,1.1-2.5,1.1-3.9c-0.1-1.4-0.6-3-1.4-4.7c-0.9-1.7-2.1-3.8-3.8-6.2
		c-1.6-2.4-3.1-4.3-4.4-5.7c-1.3-1.5-2.6-2.5-3.9-3c-1.3-0.6-2.6-0.7-4-0.4c-1.4,0.3-3,1.1-4.7,2.3c-1.5,1.1-3.2,2.3-4.9,3.7
		c-1.7,1.4-3.2,2.6-4.3,3.5l-5.1-7c0.8-0.8,1.7-1.8,2.8-2.9s2.4-2.3,3.8-3.4C712,819.6,713.4,818.5,714.8,817.5z"/>
	<path d="M699.3,828.7l23.5,41.9l-9.7,5.5l-18.9-33.7l-15.9,9l-4.6-8.1L699.3,828.7z"/>
	<path d="M673.5,843.5l8.4,48.7l-17.1,7.5l-30.2-39.2L645,856l5.7,7.1l14.2-6.2l-1.5-9L673.5,843.5z M667,865.6l-11.4,5l13.1,17.7
		l2.5-1.1L667,865.6z"/>
	<path d="M631.6,861.5l14.2,45.9l-17.9,5.5c-3.6,1.1-6.9,1.6-9.7,1.4c-2.8-0.2-5.3-1-7.4-2.4c-2.1-1.4-3.9-3.4-5.5-6
		c-1.5-2.6-2.8-5.6-3.9-9.2s-1.8-6.9-2-10c-0.3-3.1,0-5.9,0.9-8.5c0.8-2.5,2.3-4.8,4.5-6.6c2.2-1.9,5.1-3.4,8.8-4.5L631.6,861.5z
		 M623.7,873.7l-6.9,2.1c-2,0.6-3.5,1.5-4.5,2.6c-1,1.1-1.6,2.4-1.8,4c-0.2,1.5-0.2,3.2,0.2,5.1s0.8,3.8,1.5,5.9s1.3,3.9,2.1,5.4
		c0.7,1.5,1.6,2.8,2.7,3.8c1,1,2.2,1.6,3.6,1.9c1.4,0.3,3.1,0.1,5-0.5l6.9-2.1L623.7,873.7z"/>
	<path d="M588.9,874.1l9.2,47.1l-32.2,6.3l-1.7-8.9l21.2-4.1l-1.9-9.9l-17,3.3l-1.7-8.9l17-3.3l-2-10.4l-21.2,4.1l-1.8-9
		L588.9,874.1z"/>
	<path d="M551.9,881.1l4.3,47.8l-11.1,1l-1.8-19.5L538,911l-6.9,20.1l-11.5,1l8.4-24.5l-13.4-23.2l11.6-1L537,901l5.4-0.6l-1.7-18.3
		L551.9,881.1z"/>
	<path d="M496.7,884.5l-2.5,47.9l-18.2-1c-4.2-0.2-7.6-0.9-10.3-2.2c-2.7-1.2-4.7-3.1-5.9-5.7c-1.3-2.5-1.8-6-1.5-10.3
		c0.2-4.2,1.1-7.6,2.6-10.1c1.5-2.5,3.7-4.3,6.5-5.3c2.8-1,6.3-1.4,10.5-1.2l7.1,0.4l0.7-13.1L496.7,884.5z M484.4,906.1l-6.7-0.4
		c-2.7-0.1-4.7,0.5-6,1.8c-1.3,1.4-2,3.5-2.1,6.4c-0.2,3,0.3,5.1,1.4,6.4c1.1,1.3,3.1,2,5.8,2.1l6.7,0.4L484.4,906.1z"/>
	<path d="M458.8,882.6l-19.4,45.5l-18.4-3l-4.1-49.3l11.1,1.8l1,9.1l15.3,2.5l3.6-8.3L458.8,882.6z M441.3,897.6l-12.3-2l1.4,22
		l2.6,0.4L441.3,897.6z"/>
	<path d="M413.8,874.9L401,921.1l-17.6-4.9c-4-1.1-7.2-2.6-9.6-4.3c-2.4-1.8-3.9-4-4.6-6.8c-0.7-2.8-0.4-6.2,0.7-10.4
		c1.1-4.1,2.7-7.2,4.8-9.3c2-2.1,4.5-3.4,7.5-3.8c3-0.4,6.5,0,10.5,1.1l6.8,1.9l3.5-12.7L413.8,874.9z M397.1,893.2l-6.5-1.8
		c-2.6-0.7-4.7-0.6-6.3,0.5c-1.5,1.1-2.7,3-3.5,5.8c-0.8,2.9-0.8,5,0,6.5c0.8,1.5,2.5,2.6,5.2,3.4l6.5,1.8L397.1,893.2z"/>
	<path d="M374.2,863.5l-17.7,44.6l-16.9-6.7c-3.9-1.5-6.9-3.3-9.1-5.4c-2.2-2-3.4-4.4-3.8-7.2c-0.4-2.8,0.2-6.2,1.8-10.2
		c1.6-3.9,3.5-6.9,5.7-8.8c2.3-1.9,4.9-2.9,7.9-3c3-0.1,6.4,0.7,10.3,2.2l6.6,2.6l4.9-12.2L374.2,863.5z M355.6,880l-6.2-2.5
		c-2.5-1-4.6-1.1-6.3-0.2c-1.6,0.9-3,2.7-4.1,5.4c-1.1,2.8-1.3,4.9-0.7,6.5c0.6,1.6,2.3,2.9,4.8,3.9l6.2,2.5L355.6,880z"/>
	<path d="M336,847.9l-22.2,42.5l-29-15.2l4.2-8.1l19.1,10l4.7-8.9l-15.4-8l4.2-8l15.4,8l4.9-9.4l-19.1-10l4.3-8.1L336,847.9z"/>
	<path d="M302.7,830.2l-26.5,40l-15.9-10.5c-3.4-2.2-5.9-4.5-7.6-6.8s-2.4-4.8-2.3-7.5c0.2-2.7,1.4-5.8,3.7-9.2
		c1.9-2.9,4-4.9,6.3-6.3c2.3-1.3,4.7-1.8,7.3-1.5l4.1-18.7l9.6,6.4l-3.8,15.8l7.3,4.8l8.5-12.8L302.7,830.2z M280,844.3l-6.8-4.5
		c-1.3-0.9-2.5-1.3-3.7-1.3c-1.2,0-2.2,0.3-3.2,1.1s-1.9,1.7-2.7,2.9c-1.3,2-1.9,3.8-1.6,5.4c0.3,1.6,1.4,3,3.3,4.3l6.6,4.4
		L280,844.3z"/>
	<path d="M247.3,808l-5.9,6.8l-16.1-13.9l5.9-6.8L247.3,808z"/>
	<path d="M221.7,765.8L190,802.7l-7.3-8.6l25-27.9l-1-1.2l-32.1,18.7l-8-9.4l23.7-28.8l-1-1.2l-31.4,20.4l-7.3-8.6l41.5-25.3
		l11.2,13.2l-23.9,28l0-0.1l31.6-19L221.7,765.8z"/>
	<path d="M185.6,721.4l-40.3,26.1L127.5,720l7.6-4.9l11.7,18.1l8.5-5.5l-9.4-14.6l7.6-4.9l9.4,14.6l8.9-5.8l-11.7-18.1l7.7-5
		L185.6,721.4z"/>
	<path d="M159.6,679.6l-48.6,9.3l-7.8-16.9l38.6-30.9l4.7,10.2l-7,5.9l6.5,14.1l9-1.6L159.6,679.6z M137.4,673.4l-5.2-11.4
		l-17.5,13.4l1.1,2.4L137.4,673.4z"/>
	<path d="M140.9,638l-45.6,15.1l-6-18.1c-1.3-3.8-1.9-7.2-1.8-10c0.1-2.9,1-5.3,2.8-7.3c1.8-2,4.6-3.7,8.6-5
		c3.3-1.1,6.2-1.4,8.8-1.1c2.6,0.4,4.8,1.5,6.7,3.4l14.8-12.2l3.6,11l-12.8,10.1l2.8,8.3l14.5-4.8L140.9,638z M114.3,635.1l-2.6-7.8
		c-0.5-1.5-1.2-2.6-2.1-3.3c-0.9-0.7-2-1.1-3.2-1.1c-1.2,0-2.5,0.2-3.9,0.6c-2.3,0.8-3.8,1.8-4.6,3.2c-0.8,1.4-0.8,3.2-0.1,5.4
		l2.5,7.5L114.3,635.1z"/>
	<path d="M128,597.7l-46.9,10.3l-7-32L83,574l4.6,21.1l9.9-2.2l-3.7-17l8.8-1.9l3.7,17l10.3-2.3l-4.6-21.1l9-2L128,597.7z"/>
	<path d="M117.7,528.2c0.3,3.8,0.1,6.9-0.7,9.4c-0.7,2.5-2.1,4.6-3.9,6.2c-1.9,1.6-4.4,2.8-7.4,3.6c-3.1,0.8-6.8,1.4-11.2,1.8
		c-4.4,0.4-8.2,0.4-11.4,0c-3.2-0.3-5.8-1.1-7.9-2.4c-2.1-1.3-3.7-3.1-4.8-5.6c-1.1-2.4-1.9-5.6-2.2-9.5c-0.1-1.5-0.2-3.1-0.1-4.8
		c0-1.7,0.1-3.4,0.3-5c0.2-1.6,0.3-3.1,0.5-4.3l8.7-0.4c-0.1,1-0.1,2.1-0.1,3.5c0,1.4,0,2.8-0.1,4.2c0,1.4,0,2.8,0.1,4.1
		c0.2,2.1,0.6,3.8,1.2,5.1c0.6,1.3,1.6,2.2,2.8,2.9s2.9,1,4.8,1.1c1.9,0.1,4.4,0,7.3-0.2c2.9-0.2,5.3-0.5,7.2-1
		c1.9-0.4,3.4-1,4.6-1.9c1.1-0.8,1.9-1.9,2.3-3.3c0.4-1.4,0.5-3.1,0.4-5.3c-0.1-1.9-0.4-3.9-0.8-6.1c-0.4-2.2-0.7-4-0.9-5.5l8.6-0.9
		c0.3,1.1,0.7,2.4,1.1,3.9c0.4,1.5,0.8,3.2,1.1,5C117.3,524.8,117.6,526.5,117.7,528.2z"/>
	<path d="M115.6,509.3l-48-0.8l0.2-11.2l38.7,0.6l0.3-18.3l9.3,0.2L115.6,509.3z"/>
	<path d="M115.8,479.4l-46.5-16.9l2-18.5l49-6.7l-1.2,11.2l-9,1.4l-1.7,15.4l8.5,3.2L115.8,479.4z M99.8,462.7l1.3-12.4l-21.9,2.5
		l-0.3,2.7L99.8,462.7z"/>
	<path d="M121,434.1l-46.8-10.5l4.1-18.3c0.8-3.7,2-6.8,3.6-9.1c1.6-2.4,3.5-4.1,5.8-5.2c2.3-1.1,4.9-1.7,7.9-1.8
		c3-0.1,6.3,0.3,9.9,1.1c3.6,0.8,6.9,1.9,9.7,3.2c2.8,1.3,5.1,3,6.9,5c1.8,2,3,4.4,3.5,7.2c0.6,2.8,0.4,6.1-0.4,9.9L121,434.1z
		 M114.3,421.2l1.6-7.1c0.5-2,0.4-3.7,0-5.2c-0.5-1.4-1.3-2.6-2.5-3.6c-1.2-0.9-2.7-1.7-4.5-2.4c-1.8-0.6-3.7-1.2-5.8-1.7
		c-2.1-0.5-4-0.8-5.7-0.9c-1.7-0.1-3.2,0-4.6,0.4c-1.4,0.4-2.5,1.1-3.4,2.2c-0.9,1.1-1.6,2.6-2,4.6l-1.6,7.1L114.3,421.2z"/>
	<path d="M131.3,390.8l-45.4-15.5l10.6-31l8.6,2.9l-7,20.5l9.6,3.3l5.6-16.4l8.6,2.9l-5.6,16.4l10,3.4l7-20.5l8.7,3L131.3,390.8z"/>
	<path d="M143.7,355.2l-43.6-20l4.7-10.1l17.8,8.2l2.1-4.9l-14-16l4.8-10.5l17.1,19.5l26.8-0.1l-4.9,10.6l-20.6,0.6l-2.1,5l16.7,7.7
		L143.7,355.2z"/>
	<path d="M168.1,305.7l-40.3-26.1l9.9-15.3c2.3-3.5,4.6-6.1,7-7.9c2.4-1.7,5-2.5,7.9-2.3c2.8,0.2,6.1,1.4,9.7,3.8
		c3.6,2.3,6,4.8,7.5,7.3c1.4,2.6,1.9,5.4,1.4,8.3c-0.5,3-1.9,6.2-4.2,9.7l-3.8,5.9l11,7.1L168.1,305.7z M155.6,284.2l3.7-5.6
		c1.5-2.3,2-4.3,1.4-6.1c-0.6-1.8-2-3.5-4.5-5.1c-2.5-1.6-4.6-2.3-6.2-1.9c-1.7,0.3-3.3,1.6-4.8,4l-3.7,5.6L155.6,284.2z"/>
	<path d="M188.7,273.8L159,234.3l11.8-14.4l44.7,21.1l-7.1,8.7l-8.4-3.7l-9.8,12l5.4,7.3L188.7,273.8z M184.5,251.1l7.9-9.7
		l-19.7-9.8l-1.7,2.1L184.5,251.1z"/>
	<path d="M217.9,238.7l-33.7-34.2l13-12.8c3-2.9,5.8-5,8.6-6.2c2.7-1.2,5.4-1.4,8.2-0.6c2.7,0.8,5.6,2.7,8.6,5.8
		c3,3,4.9,5.9,5.7,8.8c0.8,2.8,0.7,5.6-0.4,8.4c-1.1,2.8-3.2,5.6-6.2,8.6l-5,5l9.2,9.3L217.9,238.7z M210.2,215.1l4.8-4.7
		c1.9-1.9,2.8-3.8,2.7-5.7c-0.2-1.9-1.3-3.8-3.3-5.9c-2.1-2.1-4-3.2-5.7-3.2c-1.7,0-3.5,0.9-5.5,2.9l-4.8,4.7L210.2,215.1z"/>
	<path d="M247.5,209.9l-29.9-37.6l14.3-11.3c3.3-2.6,6.3-4.3,9.2-5.2c2.8-0.9,5.6-0.8,8.2,0.3c2.6,1.1,5.3,3.3,8,6.7
		c2.6,3.3,4.2,6.4,4.8,9.3c0.5,2.9,0.1,5.7-1.3,8.3c-1.4,2.6-3.8,5.3-7.1,7.9l-5.5,4.4l8.2,10.3L247.5,209.9z M242.4,185.7l5.2-4.2
		c2.1-1.7,3.2-3.5,3.3-5.4c0-1.9-0.8-3.9-2.7-6.2c-1.8-2.3-3.6-3.6-5.3-3.8c-1.7-0.2-3.6,0.5-5.8,2.3l-5.2,4.2L242.4,185.7z"/>
	<path d="M280.1,184.6l-25.9-40.4l27.6-17.7l4.9,7.7l-18.2,11.6l5.4,8.5l14.6-9.4l4.9,7.6l-14.6,9.4l5.7,8.9l18.2-11.6l4.9,7.7
		L280.1,184.6z"/>
	<path d="M311.9,164.5l-21.5-42.9l17-8.6c3.6-1.8,6.8-2.9,9.7-3.2c2.8-0.3,5.4,0.3,7.6,1.7c2.2,1.5,4.3,4.1,6.2,7.8
		c1.5,3.1,2.3,5.9,2.3,8.6c0,2.6-0.8,5-2.4,7.1l14.2,12.9l-10.3,5.2l-11.9-11.2l-7.8,3.9l6.9,13.7L311.9,164.5z M311,137.7l7.3-3.7
		c1.4-0.7,2.4-1.5,2.9-2.5c0.6-1,0.8-2.1,0.7-3.3c-0.1-1.2-0.5-2.5-1.2-3.8c-1.1-2.1-2.4-3.5-3.9-4.1c-1.5-0.6-3.3-0.3-5.4,0.7
		l-7.1,3.5L311,137.7z"/>
</g>
</svg>
