<?xml version="1.0" encoding="utf-8"?>
<!-- Generator: Adobe Illustrator 23.0.5, SVG Export Plug-In . SVG Version: 6.00 Build 0)  -->
<svg version="1.1" id="Layer_1" xmlns="http://www.w3.org/2000/svg" xmlns:xlink="http://www.w3.org/1999/xlink" x="0px" y="0px"
	 viewBox="0 0 280 280" style="enable-background:new 0 0 280 280;" xml:space="preserve">
<style type="text/css">
	.st0{fill:#DF2718;}
</style>
<g>
	<path class="st0" d="M59.5,142.6V118H49.3l-30.5,44h12.2L49,136.1v21.7L59.5,142.6z M240.6,128.2h10.2V162h-10.2V128.2z
		 M93.7,128.2h10.2V162H93.7V128.2z M237.5,128.2h-12.2l-11.8,14.5v-14.5h-10.2V162h10.2v-18.4l11.8,18.4h12.2l-12.2-19L237.5,128.2
		z M89.6,162v-44H79.5L49,162h12.2l17.9-25.9V162H89.6z M158.7,140.7c0-7.3-5.9-13.2-13.2-13.2c-3.8,0-7.4,1.6-9.9,4.4
		c-2.3-2.8-5.8-4.5-9.4-4.4c-3,0-5.9,1.1-8.1,3.1v-2.4h-10.2V162H118v-19.6c0-2.8,2.4-5,5.2-5c2.7,0,4.9,2.3,5,5V162h10.2v-19.6
		c0-2.8,2.3-5.1,5.1-5.1c2.8,0,5.1,2.3,5.1,5.1V162h10.2L158.7,140.7z M189.1,162h10.2v-33.8h-10.2v2.9c-3-2.3-6.7-3.6-10.5-3.6
		c-9.5,0-17.3,7.7-17.3,17.3c0,9.5,7.7,17.3,17.3,17.3h7.8v-9.8H179c-4.3,0.1-7.8-3.4-7.9-7.7c-0.1-4.3,3.4-7.8,7.7-7.9
		c0.1,0,0.1,0,0.2,0h1c5,0,9.1,4.1,9.1,9.1c0,0,0,0,0,0L189.1,162z M257.3,124.3c-2.1,0-3.9,1.7-4,3.8c0,2.1,1.7,3.9,3.8,4
		c0.1,0,0.1,0,0.2,0c2.1,0,3.9-1.8,3.8-4C261.1,126,259.4,124.3,257.3,124.3z M257.3,131.5c-1.9,0-3.4-1.4-3.5-3.3
		c0-1.9,1.4-3.4,3.3-3.5c0,0,0.1,0,0.1,0c1.9,0,3.4,1.6,3.3,3.5C260.6,130,259.1,131.5,257.3,131.5z"/>
	<path class="st0" d="M257.8,128.7c0.7,0,1.4-0.6,1.4-1.4c0-0.7-0.6-1.4-1.4-1.4H256v4.4h0.5v-3.9h1.4c0.5,0,0.9,0.3,0.9,0.8
		c0,0.5-0.3,0.9-0.8,0.9c0,0,0,0-0.1,0h-1.4l2,2.2h0.7l-1.6-1.7L257.8,128.7L257.8,128.7z"/>
</g>
</svg>
